<svg width="25" height="25" viewBox="0 0 25 25" fill="none" xmlns="http://www.w3.org/2000/svg">
<path d="M22.5 0L2.5 0C1.1215 0 0 1.1215 0 2.5L0 22.5C0 23.8785 1.1215 25 2.5 25H22.5C23.8785 25 25 23.8785 25 22.5V2.5C25 1.1215 23.8785 0 22.5 0ZM24 2.5V12H13V1L22.5 1C23.327 1 24 1.673 24 2.5ZM2.5 1L12 1V12H1L1 2.5C1 1.673 1.673 1 2.5 1ZM1 22.5L1 13H12V24H2.5C1.673 24 1 23.327 1 22.5ZM22.5 24H13V13H24V22.5C24 23.327 23.327 24 22.5 24ZM3.5 6.5C3.5 6.224 3.7235 6 4 6H6V4C6 3.724 6.2235 3.5 6.5 3.5C6.7765 3.5 7 3.724 7 4V6H9C9.2765 6 9.5 6.224 9.5 6.5C9.5 6.776 9.2765 7 9 7H7V9C7 9.276 6.7765 9.5 6.5 9.5C6.2235 9.5 6 9.276 6 9V7H4C3.7235 7 3.5 6.776 3.5 6.5ZM15.5 6.5C15.5 6.224 15.7235 6 16 6L21 6C21.2765 6 21.5 6.224 21.5 6.5C21.5 6.776 21.2765 7 21 7L16 7C15.7235 7 15.5 6.776 15.5 6.5ZM21.5 17.5C21.5 17.776 21.2765 18 21 18H16C15.7235 18 15.5 17.776 15.5 17.5C15.5 17.224 15.7235 17 16 17H21C21.2765 17 21.5 17.224 21.5 17.5ZM21.5 19.5C21.5 19.776 21.2765 20 21 20H16C15.7235 20 15.5 19.776 15.5 19.5C15.5 19.224 15.7235 19 16 19H21C21.2765 19 21.5 19.224 21.5 19.5ZM8.8535 20.1465C9.049 20.342 9.049 20.658 8.8535 20.8535C8.6585 21.049 8.3415 21.049 8.1465 20.8535L6.5 19.207L4.8535 20.8535C4.6585 21.049 4.3415 21.049 4.1465 20.8535C3.951 20.658 3.951 20.342 4.1465 20.1465L5.793 18.5L4.1465 16.8535C3.951 16.658 3.951 16.342 4.1465 16.1465C4.342 15.951 4.658 15.951 4.8535 16.1465L6.5 17.793L8.1465 16.1465C8.342 15.951 8.658 15.951 8.8535 16.1465C9.049 16.342 9.049 16.658 8.8535 16.8535L7.207 18.5L8.8535 20.1465Z" fill="#1F1E1E"/>
</svg>
