<svg width="20" height="20" viewBox="0 0 20 20" fill="none" xmlns="http://www.w3.org/2000/svg">
<path opacity="0.25" d="M10 0C4.4771 0 0 4.4771 0 10C0 15.5227 4.4771 20 10 20C15.5229 20 20 15.5227 20 10C20 4.4771 15.5229 0 10 0ZM11.0624 14.5967C11.0624 15.4065 10.4385 16.0302 9.59512 16.0302C8.75155 16.0302 8.12763 15.4065 8.12763 14.5967V14.5629C8.12763 13.7532 8.75155 13.129 9.59512 13.129C10.4385 13.129 11.0624 13.7532 11.0624 14.5629V14.5967ZM14.0148 7.4949C14.0148 9.63713 12.5303 10.5147 10.6919 10.8858L10.6413 11.4979C10.5735 11.9362 10.2192 12.3243 9.73015 12.3243H9.16503C8.67574 12.3243 8.32146 11.9534 8.25425 11.4979V10.0422C8.16983 9.4855 8.75155 9.09722 9.29186 9.02981C10.7592 8.84457 11.4339 8.38908 11.4339 7.56251V7.52871C11.4339 6.76975 10.8604 6.33107 9.88178 6.33107C9.15663 6.33107 8.53251 6.55051 7.92538 7.0058C7.72274 7.15763 7.45289 7.27586 7.16603 7.27586C6.5251 7.27586 5.9852 6.73575 5.9852 6.09522C5.9852 5.77435 6.12022 5.43709 6.42408 5.18404C7.31806 4.44209 8.44809 3.96939 9.93239 3.96939C12.3617 3.96939 14.0148 5.21764 14.0148 7.46109V7.4949Z" fill="black"/>
</svg>
