<svg width="32" height="32" viewBox="0 0 32 32" fill="none" xmlns="http://www.w3.org/2000/svg">
<path d="M16 0C7.16335 0 0 7.16335 0 16C0 24.8363 7.16335 32 16 32C24.8366 32 32 24.8363 32 16C32 7.16335 24.8366 0 16 0ZM17.6999 23.3548C17.6999 24.6504 16.7016 25.6483 15.3522 25.6483C14.0025 25.6483 13.0042 24.6504 13.0042 23.3548V23.3007C13.0042 22.005 14.0025 21.0064 15.3522 21.0064C16.7016 21.0064 17.6999 22.005 17.6999 23.3007V23.3548ZM22.4237 11.9918C22.4237 15.4194 20.0485 16.8235 17.1071 17.4172L17.0261 18.3966C16.9176 19.0979 16.3508 19.7188 15.5682 19.7188H14.6641C13.8812 19.7188 13.3143 19.1254 13.2068 18.3966V16.0675C13.0717 15.1768 14.0025 14.5556 14.867 14.4477C17.2146 14.1513 18.2942 13.4225 18.2942 12.1V12.0459C18.2942 10.8316 17.3766 10.1297 15.8108 10.1297C14.6506 10.1297 13.652 10.4808 12.6806 11.2093C12.3564 11.4522 11.9246 11.6414 11.4657 11.6414C10.4402 11.6414 9.57631 10.7772 9.57631 9.75235C9.57631 9.23897 9.79236 8.69934 10.2785 8.29446C11.7089 7.10734 13.5169 6.35103 15.8918 6.35103C19.7787 6.35103 22.4237 8.34823 22.4237 11.9377V11.9918Z" fill="#FFCC00"/>
</svg>
