<svg width="35" height="35" viewBox="0 0 35 35" fill="none" xmlns="http://www.w3.org/2000/svg">
<circle cx="17.2771" cy="17.1053" r="17.1053" fill="#665CAC"/>
<path d="M16.7965 7.80156C15.2584 7.82234 11.9487 8.07484 10.0973 9.7712C8.723 11.1376 8.24278 13.1519 8.18684 15.6465C8.1389 18.1316 8.08297 22.798 12.5816 24.0692V26.0029C12.5816 26.0029 12.5512 26.778 13.0626 26.9378C13.6938 27.1375 14.0534 26.5391 14.6527 25.8998L15.7713 24.6373C18.8476 24.893 21.2048 24.3025 21.4765 24.2147C22.0997 24.0149 25.6163 23.5666 26.1916 18.8994C26.7829 14.0804 25.904 11.0441 24.3219 9.66972L24.3139 9.66812C23.8345 9.22865 21.9168 7.83033 17.6259 7.81435C17.6259 7.81435 17.3095 7.79437 16.7965 7.80156ZM16.85 9.15754C17.2855 9.15514 17.5532 9.17352 17.5532 9.17352C21.1808 9.18151 22.9156 10.2762 23.3231 10.6438C24.6575 11.7856 25.343 14.5239 24.8412 18.5479C24.3618 22.4472 21.5092 22.6949 20.9819 22.8627C20.7581 22.9346 18.6806 23.446 16.0662 23.2782C16.0662 23.2782 14.1173 25.6282 13.51 26.2354C13.4142 26.3393 13.3023 26.3713 13.2304 26.3553C13.1265 26.3313 13.0945 26.2035 13.1025 26.0277L13.1185 22.8163C9.3063 21.7616 9.53003 17.7808 9.56998 15.7033C9.61792 13.6258 10.0095 11.9222 11.1681 10.7716C12.7318 9.3573 15.5428 9.16553 16.8492 9.15754H16.85ZM17.1377 11.235C17.1063 11.2349 17.0751 11.241 17.046 11.253C17.0169 11.265 16.9905 11.2825 16.9682 11.3047C16.946 11.3269 16.9283 11.3533 16.9162 11.3823C16.9042 11.4114 16.898 11.4425 16.898 11.474C16.898 11.5375 16.9232 11.5985 16.9682 11.6435C17.0131 11.6884 17.0741 11.7137 17.1377 11.7137C17.7317 11.7023 18.3221 11.8088 18.8748 12.0268C19.4275 12.2449 19.9316 12.5703 20.3578 12.9841C21.2288 13.8311 21.6531 14.9658 21.6691 16.452C21.6691 16.4835 21.6753 16.5146 21.6873 16.5437C21.6993 16.5728 21.717 16.5992 21.7393 16.6215C21.7615 16.6437 21.7879 16.6614 21.817 16.6734C21.8461 16.6855 21.8773 16.6917 21.9088 16.6917V16.6845C21.9723 16.6845 22.0333 16.6592 22.0783 16.6143C22.1232 16.5693 22.1485 16.5084 22.1485 16.4448C22.1781 15.7459 22.0652 15.0482 21.8165 14.3943C21.5679 13.7404 21.1888 13.144 20.7022 12.6414C19.7514 11.7145 18.5512 11.235 17.1369 11.235H17.1377ZM13.9783 11.7864C13.8084 11.7622 13.6352 11.7959 13.4869 11.8823H13.4773C13.1497 12.074 12.8476 12.3137 12.56 12.6334C12.3443 12.8891 12.2236 13.1439 12.1916 13.3917C12.1728 13.5369 12.1865 13.6846 12.2316 13.8239L12.2476 13.8319C12.4939 14.556 12.8152 15.2523 13.2064 15.9094C13.7135 16.8298 14.3365 17.6813 15.0602 18.4432L15.0842 18.4751L15.1161 18.4991L15.1401 18.5231L15.1641 18.5471C15.9289 19.2726 16.7827 19.8982 17.705 20.4088C18.7597 20.9841 19.4006 21.2558 19.7841 21.3677V21.3757C19.896 21.4076 19.9983 21.4236 20.1021 21.4236C20.4295 21.3997 20.7395 21.2669 20.9827 21.0465C21.2943 20.7668 21.542 20.4568 21.7258 20.1292V20.1212C21.9096 19.7776 21.8456 19.4492 21.582 19.2254C21.0505 18.7606 20.4752 18.3484 19.864 17.9949C19.4565 17.7712 19.041 17.907 18.8732 18.1308L18.5136 18.5854C18.3299 18.8091 17.9943 18.7772 17.9943 18.7772L17.9847 18.7852C15.4917 18.1459 14.8285 15.6218 14.8285 15.6218C14.8285 15.6218 14.7965 15.2782 15.0282 15.1024L15.4757 14.7428C15.6914 14.567 15.8432 14.1515 15.6115 13.744C15.2585 13.1326 14.8463 12.5572 14.381 12.0261C14.2798 11.9006 14.1369 11.8155 13.9783 11.7864ZM17.5524 12.4975C17.4888 12.4977 17.4279 12.5232 17.3831 12.5683C17.3383 12.6134 17.3133 12.6745 17.3135 12.738C17.3137 12.8016 17.3392 12.8625 17.3843 12.9073C17.4294 12.9521 17.4904 12.9772 17.554 12.9769C18.3536 12.9908 19.1151 13.3213 19.6715 13.8958C19.9224 14.1727 20.1154 14.4971 20.2389 14.8498C20.3624 15.2025 20.414 15.5764 20.3906 15.9494C20.3908 16.0128 20.4161 16.0736 20.4611 16.1184C20.506 16.1631 20.5669 16.1883 20.6303 16.1883L20.6383 16.1979C20.6698 16.1979 20.7011 16.1917 20.7302 16.1796C20.7593 16.1675 20.7858 16.1497 20.8081 16.1274C20.8303 16.105 20.848 16.0785 20.86 16.0493C20.872 16.0202 20.8781 15.9889 20.878 15.9574C20.902 15.0065 20.6063 14.2075 20.023 13.5682C19.4397 12.929 18.6247 12.5694 17.586 12.4975C17.5748 12.4967 17.5636 12.4967 17.5524 12.4975ZM17.9439 13.7912C17.9119 13.7902 17.8799 13.7956 17.85 13.807C17.82 13.8184 17.7925 13.8356 17.7692 13.8576C17.7459 13.8796 17.7271 13.906 17.714 13.9352C17.7008 13.9645 17.6936 13.996 17.6926 14.0281C17.6917 14.0601 17.6971 14.0921 17.7085 14.1221C17.7199 14.152 17.737 14.1795 17.759 14.2028C17.781 14.2261 17.8074 14.2449 17.8367 14.2581C17.8659 14.2712 17.8975 14.2784 17.9295 14.2794C18.7206 14.3193 19.1041 14.7189 19.1521 15.5419C19.1541 15.604 19.1803 15.663 19.225 15.7062C19.2698 15.7495 19.3296 15.7736 19.3918 15.7736H19.3998C19.432 15.7726 19.4636 15.7651 19.4929 15.7516C19.5221 15.7381 19.5483 15.7188 19.57 15.695C19.5916 15.6711 19.6082 15.6431 19.6188 15.6127C19.6293 15.5823 19.6337 15.55 19.6315 15.5179C19.5756 14.4472 18.9923 13.8471 17.9535 13.7912C17.9503 13.7911 17.9471 13.7911 17.9439 13.7912Z" fill="white"/>
</svg>
