<svg width="35" height="35" viewBox="0 0 35 35" fill="none" xmlns="http://www.w3.org/2000/svg">
<circle cx="17.2771" cy="17.1053" r="17.1053" fill="#25D366"/>
<path d="M21.4569 18.9161C21.2301 18.8029 20.1141 18.257 19.9063 18.181C19.6978 18.1057 19.5465 18.0685 19.3945 18.295C19.244 18.5208 18.8086 19.0294 18.6765 19.1799C18.5443 19.3312 18.4114 19.3495 18.1845 19.237C17.9577 19.1229 17.2259 18.885 16.3589 18.1156C15.6844 17.5166 15.2284 16.7769 15.0963 16.5503C14.9641 16.3245 15.0825 16.2021 15.1956 16.0896C15.2979 15.9885 15.4232 15.8258 15.5362 15.6943C15.6501 15.562 15.6875 15.4677 15.7639 15.3164C15.8395 15.1659 15.8021 15.0344 15.7448 14.9211C15.6875 14.8079 15.2338 13.6956 15.0451 13.2433C14.8602 12.8031 14.6731 12.8632 14.5341 12.8556C14.4019 12.8495 14.2507 12.848 14.0987 12.848C13.9474 12.848 13.7015 12.9042 13.4937 13.1308C13.2859 13.3566 12.6993 13.9032 12.6993 15.0154C12.6993 16.1269 13.5128 17.2011 13.6258 17.3524C13.7396 17.5029 15.2269 19.7851 17.5039 20.7635C18.0455 20.9961 18.4679 21.1353 18.7979 21.2387C19.3418 21.4112 19.8368 21.3869 20.2271 21.3284C20.6633 21.2637 21.57 20.7818 21.7594 20.2542C21.9489 19.7266 21.9489 19.2742 21.8916 19.1799C21.835 19.0857 21.6838 19.0294 21.4562 18.9161H21.4569ZM17.3153 24.5442H17.3122C15.96 24.5443 14.6327 24.1824 13.4692 23.4965L13.1935 23.3339L10.3359 24.0804L11.0982 21.3071L10.9187 21.0228C10.1628 19.8248 9.76294 18.4385 9.76528 17.0239C9.76604 12.8807 13.1538 9.50979 17.3183 9.50979C19.3349 9.50979 21.2308 10.2928 22.6562 11.7129C23.3595 12.4098 23.9169 13.2385 24.2962 14.1512C24.6755 15.0639 24.8692 16.0423 24.866 17.03C24.8637 21.1733 21.4768 24.5442 17.3153 24.5442ZM23.7416 10.6342C22.9 9.79102 21.8986 9.12248 20.7955 8.6673C19.6924 8.21212 18.5094 7.97935 17.3153 7.98248C12.3082 7.98248 8.23297 12.0383 8.23068 17.0232C8.23068 18.6166 8.64851 20.1721 9.44369 21.5428L8.1543 26.2281L12.9704 24.9706C14.3023 25.6928 15.7948 26.0713 17.3115 26.0715H17.3153C22.3216 26.0715 26.3976 22.0156 26.3999 17.03C26.4036 15.842 26.1705 14.665 25.7142 13.5672C25.258 12.4694 24.5875 11.4725 23.7416 10.6342Z" fill="white"/>
</svg>
