<svg width="58" height="57" viewBox="0 0 58 57" fill="none" xmlns="http://www.w3.org/2000/svg">
<path d="M26.8987 41.8312C26.6609 41.8312 26.4208 41.7594 26.2155 41.6112C23.5591 39.7017 20.6093 38.279 17.446 37.3841C16.83 37.2096 16.4751 36.5781 16.6526 35.9739C16.83 35.3685 17.475 35.0208 18.0886 35.193C21.5141 36.1631 24.7087 37.7033 27.5855 39.7724C28.1028 40.144 28.2153 40.8565 27.8372 41.365C27.6087 41.6705 27.256 41.8312 26.8987 41.8312Z" fill="#060606"/>
<path d="M8.11877 37.8013C7.56778 37.8013 7.07942 37.4148 6.9785 36.8642C6.86482 36.2441 7.28474 35.6513 7.91461 35.5395L11.7321 34.8635C13.8375 34.493 16.038 34.6059 18.0923 35.1941C18.7071 35.3697 19.0609 36.0024 18.8811 36.6066C18.7025 37.2119 18.0564 37.5608 17.4428 37.3829C15.7306 36.8927 13.899 36.7992 12.1416 37.1082L8.32525 37.7842C8.25565 37.7956 8.18721 37.8013 8.11877 37.8013Z" fill="#060606"/>
<path d="M10.4387 37.3909C9.88775 37.3909 9.3994 37.0044 9.29848 36.4538C9.1848 35.8336 9.60471 35.2408 10.2346 35.1291L11.7321 34.8646C12.3655 34.7495 12.9652 35.1656 13.08 35.7846C13.1937 36.4048 12.7738 36.9976 12.1439 37.1093L10.6464 37.3738C10.5756 37.3852 10.5072 37.3909 10.4387 37.3909Z" fill="#060606"/>
<path d="M40.3992 36.8129C40.122 36.8129 39.8436 36.716 39.622 36.5188C37.9493 35.0322 35.4901 34.8852 33.6446 36.162C33.1226 36.5256 32.3976 36.4036 32.0287 35.8861C31.6598 35.3719 31.7851 34.6606 32.3094 34.2981C35.0447 32.4045 38.6917 32.6211 41.1764 34.8259C41.652 35.2477 41.6891 35.9682 41.2599 36.4356C41.0314 36.6864 40.7159 36.8129 40.3992 36.8129Z" fill="#060606"/>
<path d="M46.815 37.8503C46.4566 37.8503 46.1051 37.6884 45.8766 37.3829C44.7642 35.8883 42.6089 35.5406 41.0661 36.6043C40.543 36.9679 39.8191 36.8448 39.4503 36.3284C39.0814 35.8142 39.2067 35.1029 39.731 34.7404C42.2992 32.9597 45.8963 33.5445 47.75 36.0377C48.127 36.545 48.0156 37.2586 47.4971 37.6303C47.2929 37.7796 47.0528 37.8503 46.815 37.8503Z" fill="#060606"/>
<path d="M30.5225 43.646C30.1583 43.646 29.7987 43.4784 29.5725 43.1615C29.2036 42.6474 29.3301 41.936 29.8532 41.5735L39.731 34.7404C40.253 34.3801 40.9775 34.4998 41.3475 35.0162C41.7164 35.5303 41.5904 36.2417 41.0661 36.6043L31.1884 43.4374C30.9854 43.5788 30.7534 43.646 30.5225 43.646Z" fill="#060606"/>
<path d="M37.2715 44.5535C36.9072 44.5535 36.5476 44.3859 36.3226 44.069C35.9537 43.5549 36.079 42.8435 36.6033 42.481C37.4814 41.8734 38.3677 41.2714 39.2527 40.6707C41.5379 39.1203 43.9008 37.5163 46.0955 35.8143C46.5978 35.4255 47.3286 35.5099 47.7241 36.0035C48.1208 36.4982 48.035 37.2142 47.5316 37.604C45.28 39.3505 42.8847 40.975 40.5705 42.546C39.6889 43.1433 38.8096 43.7407 37.9361 44.3437C37.7343 44.4851 37.5023 44.5535 37.2715 44.5535Z" fill="#060606"/>
<path d="M25.9872 57C23.9363 57 21.897 56.5543 20.0179 55.6787C19.439 55.4097 19.1931 54.7291 19.4669 54.1603C19.7406 53.5903 20.4343 53.3497 21.012 53.6188C23.5268 54.7918 26.3908 55.0346 29.075 54.3073C29.6922 54.1375 30.3313 54.4954 30.5018 55.1019C30.6723 55.7084 30.3104 56.3365 29.6922 56.5041C28.4777 56.8358 27.2307 57 25.9872 57Z" fill="#060606"/>
<path d="M49.6848 47.1197C49.3205 47.1197 48.9609 46.9521 48.7359 46.6363C48.367 46.121 48.4923 45.4097 49.0155 45.0472C51.4874 43.3372 53.8526 41.4436 56.0461 39.4178C56.5136 38.9869 57.2479 39.0086 57.6852 39.468C58.1248 39.9263 58.1005 40.6479 57.6342 41.0788C55.3617 43.1776 52.9119 45.1395 50.3529 46.9099C50.1476 47.0513 49.9156 47.1197 49.6848 47.1197Z" fill="#060606"/>
<path d="M46.3752 45.3629C46.3404 45.3629 46.3045 45.3618 46.2697 45.3583L33.1781 44.1944C32.5389 44.1374 32.0691 43.5834 32.1271 42.9564C32.1851 42.3282 32.757 41.8642 33.3868 41.9235L46.4785 43.0875C47.1176 43.1445 47.5874 43.6985 47.5294 44.3255C47.4749 44.9172 46.968 45.3629 46.3752 45.3629Z" fill="#060606"/>
<path d="M33.2822 44.199C33.2474 44.199 33.2114 44.1978 33.1766 44.1944C30.6618 43.971 28.2537 43.0783 26.2144 41.6123C25.697 41.2407 25.5845 40.527 25.9627 40.0197C26.3408 39.5101 27.0658 39.4007 27.5832 39.7712C29.2826 40.9933 31.2882 41.7377 33.3843 41.9235C34.0223 41.9805 34.4932 42.5346 34.4352 43.1616C34.383 43.7532 33.8761 44.199 33.2822 44.199Z" fill="#060606"/>
<path d="M56.8393 41.39C56.1979 41.39 55.6793 40.8804 55.6793 40.25C55.6793 39.3311 54.9404 38.9333 54.7142 38.8329C54.4892 38.7315 53.6992 38.4533 52.9986 39.0598C52.5219 39.4759 51.7853 39.4326 51.3619 38.9583C50.9385 38.4864 50.9849 37.7659 51.4651 37.3498C52.6239 36.3455 54.2363 36.1163 55.6689 36.7547C57.1061 37.392 57.9993 38.7315 57.9993 40.25C57.9993 40.8792 57.4808 41.39 56.8393 41.39Z" fill="#060606"/>
<path d="M44.4149 45.1886C44.0507 45.1886 43.6911 45.021 43.466 44.7041C43.0972 44.1899 43.2224 43.4785 43.7468 43.116C46.3324 41.3274 49.0073 39.4771 51.4653 37.3488C51.9456 36.9327 52.6798 36.9771 53.1021 37.4502C53.5255 37.9222 53.4791 38.6427 52.9988 39.0588C50.4457 41.2692 47.7186 43.1559 45.0807 44.9788C44.8777 45.1213 44.6446 45.1886 44.4149 45.1886Z" fill="#060606"/>
<path d="M52.2319 39.3448C51.7609 39.3448 51.3178 39.0609 51.1438 38.6015C50.8886 37.9266 50.3225 37.4239 49.5894 37.221C48.8575 37.0215 48.1069 37.1605 47.5328 37.6063C47.0293 37.9973 46.2997 37.9129 45.903 37.4182C45.5063 36.9234 45.5921 36.2064 46.0944 35.8165C47.259 34.9136 48.7647 34.6275 50.2181 35.0265C51.6519 35.4232 52.8119 36.4629 53.3199 37.8092C53.5427 38.3997 53.2364 39.0564 52.6355 39.2741C52.5033 39.322 52.3664 39.3448 52.2319 39.3448Z" fill="#060606"/>
<path d="M50.7056 49.6813C50.1047 49.6813 49.5967 49.2264 49.5503 48.6279C49.4157 46.8906 48.034 45.5157 46.2697 45.3583C45.6305 45.3013 45.1609 44.7474 45.2189 44.1204C45.2769 43.4934 45.8486 43.0293 46.4785 43.0875C49.3773 43.3462 51.6417 45.6035 51.8644 48.4547C51.9132 49.0828 51.4353 49.63 50.7961 49.6779C50.7659 49.6802 50.7346 49.6813 50.7056 49.6813Z" fill="#060606"/>
<path d="M37.8006 51.177C35.8205 51.177 33.9936 51.0003 32.4786 50.8179C31.8429 50.7427 31.3905 50.1738 31.4683 49.5491C31.5448 48.9244 32.1225 48.4672 32.7593 48.5561C36.1604 48.962 38.6486 49.0076 41.0718 48.7032C42.2527 48.5561 43.4312 48.3669 44.6109 48.1777C46.5701 47.8642 48.5978 47.5381 50.6289 47.4047C51.2658 47.3808 51.8202 47.8391 51.8632 48.4672C51.9049 49.0953 51.4212 49.638 50.7821 49.6802C48.86 49.8056 46.8891 50.1225 44.9833 50.4269C43.7769 50.6207 42.5705 50.8133 41.3641 50.965C40.1473 51.1166 38.9479 51.177 37.8006 51.177Z" fill="#060606"/>
<path d="M29.3847 56.5474C28.8766 56.5474 28.4091 56.2168 28.2676 55.7118C28.0971 55.1053 28.459 54.4772 29.0761 54.3096C34.0455 52.9587 38.8467 51.0218 43.3474 48.5526L43.504 48.4671C44.062 48.1604 44.7707 48.3565 45.0816 48.9071C45.3948 49.4566 45.1941 50.152 44.6339 50.4575L44.4773 50.543C39.8153 53.1012 34.8412 55.1076 29.6944 56.5064C29.59 56.5338 29.4856 56.5474 29.3847 56.5474Z" fill="#060606"/>
<path d="M25.9919 41.2042C25.6276 41.2042 25.268 41.0366 25.0419 40.7197C24.673 40.2055 24.7994 39.4942 25.3226 39.1317L32.3092 34.2992C32.8312 33.9389 33.555 34.0586 33.925 34.5751C34.2939 35.0892 34.1686 35.8006 33.6443 36.1631L26.6589 40.9955C26.4547 41.1358 26.2216 41.2042 25.9919 41.2042Z" fill="#060606"/>
<path d="M20.5154 55.7894C20.3484 55.7894 20.179 55.7541 20.019 55.6788L7.62333 49.899C7.04449 49.63 6.79857 48.9494 7.07233 48.3805C7.34609 47.8117 8.0386 47.5711 8.61744 47.839L21.0131 53.6188C21.5919 53.8879 21.8378 54.5685 21.5641 55.1373C21.3645 55.5489 20.9493 55.7894 20.5154 55.7894Z" fill="#060606"/>
<path d="M5.79994 52.8049H3.47996C1.56134 52.8049 0 51.2704 0 49.3849V36.7525C0 34.8669 1.56134 33.3325 3.47996 33.3325H5.79994C7.71856 33.3325 9.2799 34.8669 9.2799 36.7525V49.3849C9.2799 51.2716 7.71856 52.8049 5.79994 52.8049ZM3.47996 35.6125C2.84081 35.6125 2.31998 36.1232 2.31998 36.7525V49.3849C2.31998 50.0141 2.84081 50.5249 3.47996 50.5249H5.79994C6.43909 50.5249 6.95993 50.0141 6.95993 49.3849V36.7525C6.95993 36.1232 6.43909 35.6125 5.79994 35.6125H3.47996Z" fill="#060606"/>
<path d="M56.3989 22.2528C56.9081 22.653 56.9905 23.37 56.5845 23.8602C56.1901 24.3516 55.4581 24.4302 54.9605 24.0426L54.3805 23.5878V29.127H49.7406V26.847H52.0605V21.7626L48.5806 19.0278L45.1006 21.7626V26.847H47.4206V29.127H42.7806V23.5866L42.2006 24.0415C41.6914 24.4291 40.9594 24.3504 40.565 23.8591C40.1591 23.3689 40.2414 22.6507 40.7506 22.2517L48.5806 16.0968L56.3989 22.2528Z" fill="#060606"/>
<path d="M40.3793 8.94901C40.8793 9.33775 40.9593 10.0559 40.5649 10.545C40.1589 11.0466 39.4293 11.1264 38.9293 10.7274L37.1197 9.30241V18.2286H31.3198V15.9486H34.7998V7.47841L28.9998 2.9184L23.1999 7.47841V15.9498H26.6798V18.2298H20.8799V9.30355L19.0703 10.7285C18.5715 11.1275 17.8407 11.0477 17.4347 10.5461C17.0403 10.0559 17.1215 9.33775 17.6203 8.95015L28.9998 0L40.3793 8.94901Z" fill="#060606"/>
<path d="M17.2491 22.2528C17.7595 22.653 17.8407 23.37 17.4347 23.8602C17.0403 24.3516 16.3095 24.4302 15.7991 24.0426L15.2191 23.5878V29.127H10.5792V26.847H12.8991V21.7626L9.41918 19.0278L5.93921 21.7626V26.847H8.25919V29.127H3.61924V23.5866L3.03925 24.0415C2.54045 24.4291 1.80966 24.3504 1.41526 23.8591C1.00927 23.3689 1.09047 22.6507 1.60086 22.2517L9.41918 16.0968L17.2491 22.2528Z" fill="#060606"/>
</svg>
