<svg width="53" height="62" viewBox="0 0 53 62" fill="none" xmlns="http://www.w3.org/2000/svg">
<path d="M37.6629 31.3548H31.3267L40.3326 16.864C40.4843 16.617 40.531 16.3208 40.4625 16.0399C40.394 15.759 40.2159 15.5162 39.967 15.3646L35.2702 12.519L27.6933 7.87839L22.9633 5.08749C22.7284 4.92423 22.4384 4.85752 22.1547 4.90143C22.013 4.93489 21.8795 4.99562 21.7616 5.08013C21.6438 5.16464 21.544 5.27128 21.4679 5.39394L18.5878 10.0345L8.72894 25.8824H4.96264C3.64737 25.8853 2.3868 26.4028 1.45676 27.3218C0.526715 28.2407 0.0029261 29.4861 0 30.7857V60.9055C0 61.1958 0.116707 61.4742 0.324448 61.6794C0.532188 61.8847 0.813944 62 1.10773 62H37.6629C37.9567 62 38.2385 61.8847 38.4462 61.6794C38.654 61.4742 38.7707 61.1958 38.7707 60.9055V32.4493C38.7707 32.159 38.654 31.8806 38.4462 31.6754C38.2385 31.4701 37.9567 31.3548 37.6629 31.3548ZM36.1564 19.3703L36.0567 19.3156L35.8684 19.1405L35.5693 18.8012L35.4475 18.5714C35.3588 18.44 35.2924 18.3087 35.2148 18.1774L35.1151 17.9694C35.0269 17.7792 34.9564 17.5813 34.9047 17.3784C34.8498 17.1595 34.8164 16.936 34.805 16.7108C34.7995 16.6379 34.7995 16.5647 34.805 16.4919C34.7942 16.3352 34.7942 16.1779 34.805 16.0213C34.7997 15.9411 34.7997 15.8607 34.805 15.7805C34.8248 15.6308 34.862 15.4839 34.9158 15.3427C34.9349 15.2605 34.9609 15.18 34.9933 15.1019C34.9933 15.1019 34.9933 15.0143 34.9933 14.9706L37.7848 16.667L36.1564 19.3703ZM33.0215 14.1388C32.9551 14.281 32.8997 14.4233 32.8443 14.5766C32.7889 14.7298 32.7224 15.0143 32.6781 15.2332C32.6416 15.3734 32.6157 15.5161 32.6006 15.6601C32.5844 15.9043 32.5844 16.1492 32.6006 16.3934C32.6006 16.5138 32.6006 16.6451 32.6006 16.7655C32.6162 17.1085 32.6644 17.4493 32.7446 17.7834C32.7394 17.8049 32.7394 17.8274 32.7446 17.849C32.8242 18.2038 32.9431 18.5488 33.0991 18.8778C33.0991 18.9873 33.2098 19.0858 33.2652 19.1952C33.3206 19.3047 33.4978 19.633 33.6419 19.841C33.7243 19.9587 33.813 20.0719 33.9077 20.1803C34.0538 20.3595 34.2091 20.5312 34.373 20.6947L34.7164 21.0011C34.8108 21.0944 34.9106 21.1821 35.0154 21.2638L28.7235 31.3548H25.9985L26.076 31.2563C26.3111 30.9903 26.5224 30.7047 26.7074 30.4026C26.8259 30.2213 26.9296 30.031 27.0176 29.8335L27.0952 29.7021C27.1616 29.5599 27.2059 29.4176 27.2613 29.2753C27.3167 29.133 27.3499 29.0674 27.3832 28.9579C27.4164 28.8485 27.3832 28.8047 27.4386 28.7281C27.7928 27.5459 27.7928 26.2876 27.4386 25.1054C27.359 24.855 27.2627 24.61 27.1505 24.3721C26.6289 23.1231 25.7117 22.0747 24.5363 21.3842C23.7909 20.9346 22.9631 20.6347 22.1003 20.5014C21.2374 20.3681 20.3565 20.4042 19.5078 20.6074C18.6591 20.8107 17.8592 21.1773 17.1539 21.6861C16.4487 22.195 15.8518 22.8362 15.3975 23.5731C15.2535 23.8139 15.1095 24.0656 14.9655 24.3611C14.8206 24.7159 14.7057 25.082 14.6221 25.4556C14.6221 25.565 14.6221 25.6745 14.5556 25.7839C14.5061 26.0296 14.4728 26.2782 14.4559 26.5282C14.4559 26.6486 14.4559 26.7799 14.4559 26.9003C14.4559 27.0207 14.4559 27.3928 14.4559 27.6445V27.9729C14.507 28.3176 14.5848 28.6578 14.6885 28.9907C14.8023 29.3244 14.9393 29.6498 15.0984 29.9648L15.2646 30.2494C15.3845 30.4652 15.5176 30.6735 15.6633 30.8732L15.896 31.1687L16.0732 31.3986H7.93137L8.04214 31.2235L19.8727 12.114L19.9835 12.1687C20.2392 12.2833 20.5019 12.382 20.77 12.4642H20.9029C21.2157 12.5483 21.534 12.6104 21.8556 12.6503H22.1547C22.3097 12.6503 22.4538 12.6503 22.6088 12.6503H23.1516C23.4197 12.6262 23.686 12.5859 23.9492 12.5299H24.0821C24.3844 12.4528 24.6806 12.3541 24.9683 12.2344L25.1899 12.1359C25.4071 12.0356 25.618 11.9223 25.8213 11.7966L26.0539 11.6543C26.3049 11.4873 26.542 11.3006 26.7628 11.0961C26.9942 10.8747 27.2089 10.6369 27.4053 10.3847L27.4718 10.3081L33.1877 13.7666C33.1201 13.885 33.0644 14.0096 33.0215 14.1388ZM18.7318 30.7091C17.8181 30.1614 17.1355 29.306 16.8098 28.3004C16.4841 27.2947 16.5373 26.2067 16.9594 25.2367C17.0591 25.0397 17.1588 24.8536 17.2696 24.6676C17.5739 24.1769 17.9732 23.7504 18.4446 23.4123C18.916 23.0743 19.4502 22.8314 20.0167 22.6975C20.3545 22.6217 20.7007 22.5886 21.0469 22.599C21.8658 22.5984 22.6682 22.826 23.3621 23.2557C24.1455 23.7104 24.7564 24.4062 25.1012 25.2367C25.1677 25.4009 25.2342 25.565 25.2895 25.7292C25.5439 26.5776 25.5322 27.4823 25.2558 28.3239C24.9794 29.1656 24.4514 29.9047 23.7413 30.4439C23.0312 30.9831 22.1725 31.2971 21.2782 31.3444C20.3839 31.3918 19.4961 31.1702 18.7318 30.7091ZM22.7528 7.46249L25.5333 9.15892L25.4557 9.25743L25.2785 9.44348C25.1692 9.54774 25.0546 9.64637 24.9351 9.73899L24.7246 9.89222C24.5943 9.97933 24.4572 10.0562 24.3147 10.1221L24.1264 10.2206C23.7032 10.4069 23.2488 10.5145 22.7861 10.538H22.5978C22.4281 10.5486 22.2579 10.5486 22.0882 10.538H21.8667C21.709 10.5081 21.5536 10.4679 21.4014 10.4176L21.1688 10.341L21.0469 10.2315L22.7528 7.46249ZM2.21547 30.7857C2.21547 30.0658 2.5049 29.3754 3.0201 28.8664C3.53529 28.3574 4.23405 28.0714 4.96264 28.0714H7.3775L5.33927 31.3548H2.21547V30.7857ZM2.21547 59.8111V33.5437H36.5552V41.205H28.5241C27.1286 41.205 25.7903 41.7528 24.8035 42.7277C23.8168 43.7027 23.2624 45.025 23.2624 46.4038V46.951C23.2624 48.3298 23.8168 49.6521 24.8035 50.6271C25.7903 51.602 27.1286 52.1498 28.5241 52.1498H36.5552V59.8111H2.21547ZM36.5552 49.9608H28.5241C27.7162 49.9608 26.9414 49.6437 26.3701 49.0793C25.7988 48.5148 25.4779 47.7493 25.4779 46.951V46.4038C25.4779 45.6055 25.7988 44.84 26.3701 44.2755C26.9414 43.7111 27.7162 43.394 28.5241 43.394H36.5552V49.9608Z" fill="#060606"/>
<path d="M19.0142 0.105329L10.1537 13.237L11.9971 14.4512L20.8576 1.31953L19.0142 0.105329Z" fill="#060606"/>
<path d="M42.2843 0.105929L35.6358 9.95923L37.4792 11.1734L44.1277 1.32013L42.2843 0.105929Z" fill="#060606"/>
<path d="M51.1401 6.68495L38.9525 25.2914L40.8124 26.4807L53 7.87425L51.1401 6.68495Z" fill="#060606"/>
<path d="M32.0682 0L28.7741 5.48828L30.6797 6.60481L33.9738 1.11653L32.0682 0Z" fill="#060606"/>
<path d="M31.0166 48.8663C32.2402 48.8663 33.2321 47.8863 33.2321 46.6774C33.2321 45.4684 32.2402 44.4884 31.0166 44.4884C29.793 44.4884 28.8011 45.4684 28.8011 46.6774C28.8011 47.8863 29.793 48.8663 31.0166 48.8663Z" fill="#060606"/>
</svg>
