<svg width="59" height="52" viewBox="0 0 59 52" fill="none" xmlns="http://www.w3.org/2000/svg">
<path d="M57.5484 31.0825L46.6993 36.5926V34.8103L58.4659 28.8432C58.948 28.5951 59.1423 28.0141 58.8878 27.5375C58.64 27.0674 58.0373 26.8781 57.5484 27.1327L46.6993 32.6428V30.7365L58.4659 24.7628C58.948 24.5148 59.1423 23.9337 58.8878 23.4571C58.64 22.9936 58.0373 22.8043 57.5484 23.0524L46.6993 28.5559V26.7606L58.265 20.8979C58.5998 20.7282 58.8007 20.3952 58.794 20.0296C58.794 19.664 58.5864 19.3376 58.2449 19.1744L40.23 10.4914C39.9555 10.3543 39.6273 10.3543 39.3527 10.4914L0.557235 28.9738C0.21569 29.137 0.00138688 29.4765 0.00138688 29.8486C0.00138688 30.2207 0.21569 30.5537 0.557235 30.7169L19.9583 39.9026C20.0923 39.9679 20.2396 40.0005 20.3869 40.0005C20.541 40.0005 20.7017 39.9613 20.8423 39.8895L33.359 33.5307V35.3261L20.3668 41.9199L1.41445 32.9497C0.932264 32.7212 0.336235 32.917 0.101841 33.4001C-0.132552 33.8832 0.0616595 34.4578 0.557235 34.6863L19.9583 43.8719C20.0923 43.9372 20.2396 43.9699 20.3869 43.9699C20.541 43.9699 20.7017 43.9307 20.8423 43.8589L33.359 37.5001V39.3999L20.3668 45.9937L1.41445 37.0235C0.932264 36.7885 0.336235 36.9908 0.101841 37.4805C-0.139249 37.9505 0.0616595 38.5381 0.557235 38.7666L19.9583 47.9458C20.0923 48.0111 20.2396 48.0502 20.3869 48.0502C20.541 48.0502 20.7017 48.011 20.8423 47.9327L33.359 41.5804V43.3497L20.3668 49.9435L1.41445 40.9798C0.932264 40.7448 0.336235 40.9472 0.101841 41.4303C-0.139249 41.9068 0.0616595 42.4879 0.557235 42.7164L19.9583 51.8955C20.0923 51.9674 20.2396 52 20.3869 52C20.541 52 20.7017 51.9608 20.8423 51.8825L58.4659 32.7995C58.948 32.5579 59.1423 31.9704 58.8878 31.5003C58.64 31.0237 58.0373 30.8344 57.5484 31.0825ZM34.3434 30.8605L17.7885 22.9153L27.1844 18.4367L43.4513 26.2383L34.3434 30.8605ZM39.7813 12.4369L55.613 20.0623L45.6278 25.1284L29.4412 17.3595L39.7813 12.4369ZM20.3735 37.9505L3.25611 29.8421L15.5383 23.9925L32.1535 31.9638L20.3735 37.9505ZM37.8124 31.2718C37.8191 31.2653 37.8325 31.2653 37.8392 31.2588L44.717 27.7725V37.5915L35.3479 42.3508V32.5318L37.8124 31.2718Z" fill="#060606"/>
<path d="M17.7288 12.9266C25.725 12.9266 31.7657 10.1454 31.7657 6.46328C31.7657 2.78117 25.7317 0 17.7288 0C9.72595 0 3.68529 2.78117 3.68529 6.46328C3.68529 10.1454 9.72595 12.9266 17.7288 12.9266ZM17.7288 1.93245C24.8343 1.93245 29.7834 4.32191 29.7834 6.46328C29.7834 8.60464 24.8343 10.9941 17.7288 10.9941C10.6233 10.9941 5.67429 8.60464 5.67429 6.46328C5.67429 4.32191 10.6233 1.93245 17.7288 1.93245Z" fill="#060606"/>
<path d="M31.5224 12.0908C31.7501 11.6012 31.5224 11.0267 31.0269 10.8112C30.5246 10.5958 29.942 10.8112 29.7143 11.3009C29.0312 12.7763 24.2562 14.3758 17.7267 14.3758C11.1972 14.3758 6.42223 12.7763 5.73244 11.2943C5.50474 10.8112 4.92211 10.5892 4.41984 10.8112C3.92426 11.0332 3.69656 11.6077 3.92426 12.0908C5.27035 14.9895 12.0209 16.3148 17.7267 16.3148C23.4325 16.3148 30.1897 14.9895 31.5224 12.0908Z" fill="#060606"/>
<path d="M18.7178 18.9981C18.7178 18.4628 18.2758 18.0319 17.7334 18.0319C11.2039 18.0319 6.42892 16.4324 5.73914 14.9439C5.50474 14.4673 4.92211 14.2454 4.41984 14.4673C3.92426 14.6893 3.69656 15.2573 3.92426 15.7469C5.27035 18.6456 12.0209 19.9709 17.7267 19.9709C18.2758 19.9709 18.7178 19.5335 18.7178 18.9981Z" fill="#060606"/>
<path d="M11.5611 22.6997C12.0432 22.6997 12.4651 22.3603 12.5388 21.8771C12.6259 21.3549 12.2508 20.8587 11.7084 20.7803C7.54957 20.1732 5.95569 19.1417 5.70121 18.6912C5.43333 18.2211 4.8373 18.0514 4.35512 18.306C3.87294 18.5606 3.69882 19.1482 3.96 19.6183C4.96454 21.4006 8.56751 22.2754 11.4137 22.6932C11.4673 22.6997 11.5142 22.6997 11.5611 22.6997Z" fill="#060606"/>
<path d="M5.64604 22.1775C5.33128 21.7401 4.71516 21.6291 4.26646 21.936C3.81777 22.2428 3.70392 22.8369 4.01198 23.2809C4.56113 24.0512 5.82686 24.6649 7.88282 25.148C7.96319 25.1676 8.03685 25.1741 8.11722 25.1741C8.56591 25.1741 8.96773 24.8804 9.08158 24.4364C9.20882 23.9141 8.88067 23.3918 8.35161 23.2678C6.05455 22.7259 5.65943 22.2036 5.64604 22.1775Z" fill="#060606"/>
<path d="M31.2761 26.0533C33.5549 25.132 35.1081 23.6939 34.7454 22.8413C34.3827 21.9887 32.2413 22.0444 29.9625 22.9657C27.6838 23.8871 26.1306 25.3251 26.4933 26.1777C26.856 27.0304 28.9974 26.9746 31.2761 26.0533Z" fill="#060606"/>
</svg>
