<svg width="50" height="51" viewBox="0 0 50 51" fill="none" xmlns="http://www.w3.org/2000/svg">
<path d="M46.0875 50.632H3.9125C1.75625 50.632 0 48.8773 0 46.7195V7.67102C0 5.51321 1.75625 3.75696 3.91406 3.75696H46.0859C48.2438 3.75696 50 5.51321 50 7.67102V46.7195C50 48.8773 48.2453 50.632 46.0875 50.632ZM3.91406 6.88196C3.47969 6.88196 3.125 7.23665 3.125 7.67102V46.7195C3.125 47.1538 3.47812 47.507 3.9125 47.507H46.0875C46.5219 47.507 46.875 47.1538 46.875 46.7195V7.67102C46.875 7.23665 46.5203 6.88196 46.0859 6.88196H3.91406ZM48.4375 16.257H1.5625C0.7 16.257 0 15.557 0 14.6945C0 13.832 0.7 13.132 1.5625 13.132H48.4375C49.3016 13.132 50 13.832 50 14.6945C50 15.557 49.3016 16.257 48.4375 16.257ZM9.375 10.007C8.5125 10.007 7.8125 9.30696 7.8125 8.44446V2.19446C7.8125 1.33196 8.5125 0.631958 9.375 0.631958C10.2375 0.631958 10.9375 1.33196 10.9375 2.19446V8.44446C10.9375 9.30696 10.2375 10.007 9.375 10.007ZM40.625 10.007C39.7609 10.007 39.0625 9.30696 39.0625 8.44446V2.19446C39.0625 1.33196 39.7609 0.631958 40.625 0.631958C41.4891 0.631958 42.1875 1.33196 42.1875 2.19446V8.44446C42.1875 9.30696 41.4891 10.007 40.625 10.007Z" fill="#060606"/>
<path d="M9.375 30.3195C10.2379 30.3195 10.9375 29.6199 10.9375 28.757C10.9375 27.894 10.2379 27.1945 9.375 27.1945C8.51206 27.1945 7.8125 27.894 7.8125 28.757C7.8125 29.6199 8.51206 30.3195 9.375 30.3195Z" fill="#060606"/>
<path d="M9.375 36.5695C10.2379 36.5695 10.9375 35.8699 10.9375 35.007C10.9375 34.144 10.2379 33.4445 9.375 33.4445C8.51206 33.4445 7.8125 34.144 7.8125 35.007C7.8125 35.8699 8.51206 36.5695 9.375 36.5695Z" fill="#060606"/>
<path d="M9.375 42.8195C10.2379 42.8195 10.9375 42.1199 10.9375 41.257C10.9375 40.394 10.2379 39.6945 9.375 39.6945C8.51206 39.6945 7.8125 40.394 7.8125 41.257C7.8125 42.1199 8.51206 42.8195 9.375 42.8195Z" fill="#060606"/>
<path d="M34.375 24.0695C35.2379 24.0695 35.9375 23.3699 35.9375 22.507C35.9375 21.644 35.2379 20.9445 34.375 20.9445C33.5121 20.9445 32.8125 21.644 32.8125 22.507C32.8125 23.3699 33.5121 24.0695 34.375 24.0695Z" fill="#060606"/>
<path d="M34.375 30.3195C35.2379 30.3195 35.9375 29.6199 35.9375 28.757C35.9375 27.894 35.2379 27.1945 34.375 27.1945C33.5121 27.1945 32.8125 27.894 32.8125 28.757C32.8125 29.6199 33.5121 30.3195 34.375 30.3195Z" fill="#060606"/>
<path d="M34.375 36.5695C35.2379 36.5695 35.9375 35.8699 35.9375 35.007C35.9375 34.144 35.2379 33.4445 34.375 33.4445C33.5121 33.4445 32.8125 34.144 32.8125 35.007C32.8125 35.8699 33.5121 36.5695 34.375 36.5695Z" fill="#060606"/>
<path d="M34.375 42.8195C35.2379 42.8195 35.9375 42.1199 35.9375 41.257C35.9375 40.394 35.2379 39.6945 34.375 39.6945C33.5121 39.6945 32.8125 40.394 32.8125 41.257C32.8125 42.1199 33.5121 42.8195 34.375 42.8195Z" fill="#060606"/>
<path d="M40.625 24.0695C41.4879 24.0695 42.1875 23.3699 42.1875 22.507C42.1875 21.644 41.4879 20.9445 40.625 20.9445C39.7621 20.9445 39.0625 21.644 39.0625 22.507C39.0625 23.3699 39.7621 24.0695 40.625 24.0695Z" fill="#060606"/>
<path d="M40.625 30.3195C41.4879 30.3195 42.1875 29.6199 42.1875 28.757C42.1875 27.894 41.4879 27.1945 40.625 27.1945C39.7621 27.1945 39.0625 27.894 39.0625 28.757C39.0625 29.6199 39.7621 30.3195 40.625 30.3195Z" fill="#060606"/>
<path d="M40.625 36.5695C41.4879 36.5695 42.1875 35.8699 42.1875 35.007C42.1875 34.144 41.4879 33.4445 40.625 33.4445C39.7621 33.4445 39.0625 34.144 39.0625 35.007C39.0625 35.8699 39.7621 36.5695 40.625 36.5695Z" fill="#060606"/>
<path d="M21.875 24.0695C22.7379 24.0695 23.4375 23.3699 23.4375 22.507C23.4375 21.644 22.7379 20.9445 21.875 20.9445C21.0121 20.9445 20.3125 21.644 20.3125 22.507C20.3125 23.3699 21.0121 24.0695 21.875 24.0695Z" fill="#060606"/>
<path d="M21.875 30.3195C22.7379 30.3195 23.4375 29.6199 23.4375 28.757C23.4375 27.894 22.7379 27.1945 21.875 27.1945C21.0121 27.1945 20.3125 27.894 20.3125 28.757C20.3125 29.6199 21.0121 30.3195 21.875 30.3195Z" fill="#060606"/>
<path d="M21.875 36.5695C22.7379 36.5695 23.4375 35.8699 23.4375 35.007C23.4375 34.144 22.7379 33.4445 21.875 33.4445C21.0121 33.4445 20.3125 34.144 20.3125 35.007C20.3125 35.8699 21.0121 36.5695 21.875 36.5695Z" fill="#060606"/>
<path d="M21.875 42.8195C22.7379 42.8195 23.4375 42.1199 23.4375 41.257C23.4375 40.394 22.7379 39.6945 21.875 39.6945C21.0121 39.6945 20.3125 40.394 20.3125 41.257C20.3125 42.1199 21.0121 42.8195 21.875 42.8195Z" fill="#060606"/>
<path d="M15.625 24.0695C16.4879 24.0695 17.1875 23.3699 17.1875 22.507C17.1875 21.644 16.4879 20.9445 15.625 20.9445C14.7621 20.9445 14.0625 21.644 14.0625 22.507C14.0625 23.3699 14.7621 24.0695 15.625 24.0695Z" fill="#060606"/>
<path d="M15.625 30.3195C16.4879 30.3195 17.1875 29.6199 17.1875 28.757C17.1875 27.894 16.4879 27.1945 15.625 27.1945C14.7621 27.1945 14.0625 27.894 14.0625 28.757C14.0625 29.6199 14.7621 30.3195 15.625 30.3195Z" fill="#060606"/>
<path d="M15.625 36.5695C16.4879 36.5695 17.1875 35.8699 17.1875 35.007C17.1875 34.144 16.4879 33.4445 15.625 33.4445C14.7621 33.4445 14.0625 34.144 14.0625 35.007C14.0625 35.8699 14.7621 36.5695 15.625 36.5695Z" fill="#060606"/>
<path d="M15.625 42.8195C16.4879 42.8195 17.1875 42.1199 17.1875 41.257C17.1875 40.394 16.4879 39.6945 15.625 39.6945C14.7621 39.6945 14.0625 40.394 14.0625 41.257C14.0625 42.1199 14.7621 42.8195 15.625 42.8195Z" fill="#060606"/>
<path d="M28.125 24.0695C28.9879 24.0695 29.6875 23.3699 29.6875 22.507C29.6875 21.644 28.9879 20.9445 28.125 20.9445C27.2621 20.9445 26.5625 21.644 26.5625 22.507C26.5625 23.3699 27.2621 24.0695 28.125 24.0695Z" fill="#060606"/>
<path d="M28.125 30.3195C28.9879 30.3195 29.6875 29.6199 29.6875 28.757C29.6875 27.894 28.9879 27.1945 28.125 27.1945C27.2621 27.1945 26.5625 27.894 26.5625 28.757C26.5625 29.6199 27.2621 30.3195 28.125 30.3195Z" fill="#060606"/>
<path d="M28.125 36.5695C28.9879 36.5695 29.6875 35.8699 29.6875 35.007C29.6875 34.144 28.9879 33.4445 28.125 33.4445C27.2621 33.4445 26.5625 34.144 26.5625 35.007C26.5625 35.8699 27.2621 36.5695 28.125 36.5695Z" fill="#060606"/>
<path d="M28.125 42.8195C28.9879 42.8195 29.6875 42.1199 29.6875 41.257C29.6875 40.394 28.9879 39.6945 28.125 39.6945C27.2621 39.6945 26.5625 40.394 26.5625 41.257C26.5625 42.1199 27.2621 42.8195 28.125 42.8195Z" fill="#060606"/>
</svg>
