<svg width="41" height="54" viewBox="0 0 41 54" fill="none" xmlns="http://www.w3.org/2000/svg">
<path d="M4.55549 0C2.04424 0 0 2.01824 0 4.50014V49.5001C0 51.9819 2.04434 54 4.55569 54H36.4445C38.9558 54 41 51.9818 41 49.4999V12.3749C41 12.0761 40.8799 11.7907 40.6663 11.5797L29.2773 0.329589C29.0638 0.118653 28.7747 0 28.4722 0H4.55549ZM4.5557 2.25007H27.3333V9.00007C27.3333 11.4819 29.3777 13.5 31.889 13.5H38.7224V49.4999C38.7224 50.7402 37.7012 51.7499 36.4445 51.7499H4.55569C3.29889 51.7499 2.27785 50.7402 2.27785 49.4999V4.50014C2.27785 3.25983 3.299 2.25007 4.55569 2.25007H4.5557ZM29.611 3.84096L37.1116 11.2501H31.8888C30.632 11.2501 29.611 10.2404 29.611 9.00007V3.84096ZM7.97236 11.2499C7.34284 11.2499 6.83333 11.753 6.83333 12.3749C6.83333 12.9967 7.34284 13.5 7.97236 13.5H21.639C22.2685 13.5 22.7778 12.9967 22.7778 12.3749C22.7778 11.753 22.2685 11.2499 21.639 11.2499H7.97236ZM7.97236 17.9999C7.34284 18 6.83333 18.5031 6.83333 19.1249C6.83333 19.7467 7.34284 20.25 7.97236 20.25H33.0278C33.6574 20.25 34.1669 19.7467 34.1669 19.1249C34.1669 18.503 33.6574 17.9999 33.0278 17.9999H7.97236ZM7.97236 24.7501C7.34284 24.7501 6.83333 25.2532 6.83333 25.8751C6.83333 26.4969 7.34284 27.0002 7.97236 27.0002H33.0278C33.6574 27.0002 34.1669 26.4969 34.1669 25.8751C34.1668 25.2532 33.6572 24.7501 33.0276 24.7501H7.97236ZM17.0833 31.5001C16.4538 31.5001 15.9443 32.0032 15.9443 32.6251C15.9443 33.2469 16.4538 33.7502 17.0833 33.7502H33.0276C33.6572 33.7502 34.1667 33.2469 34.1667 32.6251C34.1667 32.0032 33.6572 31.5001 33.0276 31.5001H17.0833ZM10.25 35.9999C8.9065 35.9999 6.83333 37.9325 6.83333 40.5C6.83333 41.6382 7.47161 43.0444 8.37692 44.2781C8.01657 44.6341 7.64955 44.9573 7.2892 45.2253C6.78652 45.5977 6.68407 46.3029 7.06001 46.7995C7.28466 47.095 7.62739 47.25 7.97215 47.25C8.21014 47.25 8.45043 47.1764 8.65511 47.0248C9.04888 46.7338 9.47148 46.3679 9.89632 45.9504C10.7883 46.7349 11.7357 47.25 12.5276 47.25C14.067 47.25 14.9812 45.5197 15.7754 43.9277C16.3004 45.646 16.8076 47.25 18.2224 47.25C21.7188 47.2799 19.313 47.2473 24.7492 47.2602C25.036 47.1149 25.7172 47.0783 25.7248 46.2658C25.7341 45.2836 25.1622 45.17 24.8533 44.9952C22.3863 44.9359 20.7768 44.9204 18.4958 44.844C18.2978 44.4013 18.0732 43.6608 17.9375 43.2115C17.4749 41.6965 17.1122 40.5 15.9443 40.5C14.9456 40.5 14.4962 41.402 13.8156 42.7666C13.4819 43.4345 12.7902 44.8255 12.5389 45.0002C12.2919 44.9748 11.8693 44.6903 11.4045 44.2619C12.6591 42.6612 13.6667 40.8076 13.6667 39.3749C13.6667 36.9161 11.5713 35.9999 10.25 35.9999V35.9999ZM10.25 38.2501C10.4391 38.2501 11.389 38.3038 11.389 39.3751C11.389 40.0924 10.775 41.3032 9.903 42.4953C9.44036 41.7987 9.11097 41.0758 9.11097 40.5C9.11097 39.1279 10.1299 38.3248 10.25 38.2501Z" fill="#060606"/>
</svg>
