<svg width="48" height="49" viewBox="0 0 48 49" fill="none" xmlns="http://www.w3.org/2000/svg">
<path d="M24.1266 49C23.0501 49 22.2269 48.1706 22.2269 47.0859V41.918C22.2269 40.8333 23.0501 40.0039 24.1266 40.0039C25.2032 40.0039 26.0264 40.8333 26.0264 41.918V47.0859C26.0264 48.1706 25.2032 49 24.1266 49ZM39.8945 42.3008C39.3879 42.3008 38.9446 42.1094 38.5646 41.7266L34.8918 38.026C34.1319 37.2604 34.1319 36.0482 34.8918 35.3464C35.6517 34.5807 36.8549 34.5807 37.5514 35.3464L41.2243 39.0469C41.9842 39.8125 41.9842 41.0247 41.2243 41.7266C40.8443 42.1094 40.4011 42.3008 39.8945 42.3008ZM8.29552 42.1732C7.78892 42.1732 7.28232 41.9818 6.9657 41.599C6.2058 40.8333 6.26913 39.6211 6.9657 38.9193L10.4485 35.474C11.2084 34.7083 12.4116 34.7721 13.1082 35.474C13.8681 36.2396 13.8047 37.4518 13.1082 38.1536L9.62533 41.599C9.24538 41.9818 8.80211 42.1732 8.29552 42.1732ZM24 37.0052C17.161 37.0052 11.6517 31.4544 11.6517 24.5638C11.6517 17.6732 17.161 12.1224 24 12.1224C30.8391 12.1224 36.3483 17.6732 36.3483 24.5638C36.3483 31.4544 30.8391 37.0052 24 37.0052ZM24 15.9505C19.314 15.9505 15.4512 19.8424 15.4512 24.5638C15.4512 29.2852 19.314 33.1771 24 33.1771C28.686 33.1771 32.5488 29.2852 32.5488 24.5638C32.5488 19.8424 28.686 15.9505 24 15.9505ZM46.1003 26.9245H41.0976C40.0211 26.9245 39.1979 26.0951 39.1979 25.0104C39.1979 23.9258 40.0211 23.0964 41.0976 23.0964H46.1003C47.1768 23.0964 48 23.9258 48 25.0104C48 26.0951 47.1768 26.9245 46.1003 26.9245ZM6.7124 26.8607H1.89974C0.823219 26.8607 0 26.0312 0 24.9466C0 23.862 0.823219 23.0326 1.89974 23.0326H6.7124C7.78892 23.0326 8.61214 23.862 8.61214 24.9466C8.61214 26.0312 7.78892 26.8607 6.7124 26.8607ZM36.3483 14.2279C35.8417 14.2279 35.3351 14.0365 35.0185 13.6536C34.2586 12.888 34.3219 11.6758 35.0185 10.974L38.628 7.40104C39.3879 6.63542 40.591 6.69922 41.2876 7.40104C41.9842 8.10286 41.9842 9.37891 41.2876 10.0807L37.6781 13.6536C37.2982 14.0365 36.8549 14.2279 36.3483 14.2279ZM11.8417 14.0365C11.3351 14.0365 10.8918 13.8451 10.5119 13.4622L7.02902 9.95312C6.26913 9.1875 6.26913 7.97526 7.02902 7.27344C7.78892 6.50781 8.99209 6.50781 9.68866 7.27344L13.1715 10.7826C13.9314 11.5482 13.9314 12.7604 13.1715 13.4622C12.7916 13.8451 12.3483 14.0365 11.8417 14.0365ZM24.1266 9.0599C23.0501 9.0599 22.2269 8.23047 22.2269 7.14583V1.91406C22.2269 0.829427 23.0501 0 24.1266 0C25.2032 0 26.0264 0.829427 26.0264 1.91406V7.14583C26.0264 8.23047 25.2032 9.0599 24.1266 9.0599Z" fill="#060606"/>
</svg>
