<svg width="54" height="40" viewBox="0 0 54 40" fill="none" xmlns="http://www.w3.org/2000/svg">
<path d="M36.7874 0V0.15H36.7796C36.7771 0.149732 36.7746 0.14947 36.7721 0.149215L36.7874 0ZM53.7302 18.7892C53.7301 18.7891 53.73 18.789 53.73 18.7888L53.8687 18.7316L53.7304 18.7897L53.7302 18.7892ZM49.5307 8.79042C49.5306 8.79031 49.5306 8.79021 49.5305 8.7901L49.5304 8.7897L49.6687 8.73162L49.5307 8.79042ZM38.5499 7.64706H47.9999L38.3999 7.49706V7.64706H38.5499ZM34.7999 3.37941H34.9499V3.52941V28.2353H34.95L34.9499 28.2385C34.9494 28.2609 34.9494 28.2833 34.9499 28.3056L34.9509 28.3514L34.9261 28.3899C34.4886 29.0707 34.1678 29.8213 33.9706 30.624L33.9426 30.7382H33.8249H20.1937H20.0761L20.048 30.624C19.2401 27.3357 16.1944 24.8559 12.6 24.8559C9.0025 24.8559 5.95922 27.3329 5.15192 30.624L5.12389 30.7382H5.00624H3.59999H3.44999V30.5882V3.52941V3.37941H3.59999H34.7999ZM46.7999 11.0265H46.8997L46.9383 11.1185L49.657 17.6075L49.7441 17.8154H49.5187H38.3999H38.2499V17.6654V11.1765V11.0265H38.3999H46.7999ZM50.3999 21.0449H50.5499V21.1949V30.5882V30.7382H50.3999H48.9749H48.8573L48.8293 30.6241C48.0214 27.3387 44.9936 24.8559 41.3999 24.8559C40.3548 24.8559 39.3692 25.0723 38.4575 25.451L38.2499 25.5372V25.3125V21.1949V21.0449H38.3999H50.3999ZM37.0499 32.3713C37.0499 30.0037 38.9892 28.0853 41.3999 28.0853C43.8104 28.0853 45.7499 29.9944 45.7499 32.3713C45.7499 34.7452 43.8159 36.6206 41.3999 36.6206C38.984 36.6206 37.0499 34.7452 37.0499 32.3713ZM8.24998 32.3713C8.24998 29.9991 10.1894 28.0853 12.6 28.0853C15.0133 28.0853 16.95 29.9799 16.95 32.3529C16.95 34.726 15.0133 36.6206 12.6 36.6206C10.184 36.6206 8.24998 34.7452 8.24998 32.3713Z" fill="#060606" stroke="#FFCC00" stroke-width="0.3"/>
</svg>
