<svg width="39" height="50" viewBox="0 0 39 50" fill="none" xmlns="http://www.w3.org/2000/svg">
<path d="M13.9668 0.473069C12.4283 0.836856 11.0805 1.36907 10.023 1.92719C8.96558 2.48531 8.231 2.88726 7.72089 3.78311C7.33548 4.44979 7.76775 5.44114 8.51343 5.60076C10.0832 5.92565 13.3543 6.93935 15.9104 8.35594C17.1885 9.06424 18.2968 9.88287 18.9296 10.6519C19.5372 11.3902 19.6898 11.9408 19.5335 12.5844L16.3256 18.2478C15.1163 20.3716 12.3094 22.7504 10.0796 26.6664C7.47783 31.2357 2.74826 39.6364 0.154041 44.1923C-0.170109 44.7475 0.0374498 45.5527 0.588052 45.8761L7.4001 49.8558C7.94894 50.1695 8.72916 49.9512 9.04179 49.3966L19.024 31.8706C21.2559 27.9509 21.9024 24.3638 23.1188 22.2275L26.4587 16.3727C27.2934 15.3117 29.3746 16.5795 29.912 16.8893C30.3557 17.1451 30.9846 18.2316 31.9122 19.3001C32.4209 19.8713 33.4775 19.7569 33.8558 19.0896L38.8563 10.3075C39.2417 9.64083 38.8094 8.64948 38.0638 8.48985C37.0759 8.09949 35.8383 8.33837 34.9502 7.89673L24.4019 1.71673C22.6646 0.697369 20.8305 0.200686 19.0429 0.0521129C17.3829 -0.107875 15.4851 0.119722 13.9668 0.473069ZM18.8164 2.50115C20.303 2.6225 21.8062 3.02604 23.1943 3.84046L33.7614 10.0205C34.4029 10.3892 35.1997 10.6012 35.856 10.6901L32.6858 16.2387C32.166 15.7107 31.6586 15.1125 31.1008 14.7655C29.0244 13.5489 27.5051 13.24 26.3078 13.5601C25.4823 13.7809 24.9703 14.3242 24.6661 14.7273L21.9111 13.1009C22.2307 11.6244 21.6788 10.1765 20.7789 9.08297C19.8292 7.92886 18.5161 7.00861 17.0804 6.21298C15.2082 5.17542 13.283 4.47687 11.5515 3.93614C12.3751 3.53602 13.3442 3.12216 14.5141 2.84555C16.0834 2.49819 17.3429 2.42634 18.8164 2.50115ZM20.7978 15.2822L23.4207 16.8128L21.0431 21.003C19.4772 23.753 18.9317 27.1297 16.9294 30.6461L7.55107 47.1197L2.85245 44.3646C5.52383 39.6626 9.73627 32.1724 12.1742 27.8909C14.1642 24.396 16.8472 22.2348 18.4202 19.4723L20.7978 15.2822Z" fill="black"/>
</svg>
