<svg width="224" height="142" viewBox="0 0 224 142" fill="none" xmlns="http://www.w3.org/2000/svg">
<g filter="url(#filter0_d)">
<path d="M68.9314 72.9201C69.5573 72.9214 70.1774 72.7992 70.756 72.5606C71.3347 72.322 71.8606 71.9716 72.3037 71.5294C72.7467 71.0873 73.0983 70.5621 73.3381 69.9839C73.5779 69.4058 73.7014 68.786 73.7014 68.1601C73.712 58.4484 77.5746 49.1376 84.4418 42.2704C91.3089 35.4033 100.62 31.5406 110.331 31.5301C111.595 31.5301 112.807 31.028 113.701 30.1344C114.594 29.2408 115.096 28.0288 115.096 26.7651C115.096 25.5013 114.594 24.2893 113.701 23.3957C112.807 22.5021 111.595 22.0001 110.331 22.0001C98.0931 22.0133 86.3598 26.8808 77.706 35.5346C69.0521 44.1884 64.1846 55.9217 64.1714 68.1601C64.1714 69.4225 64.6729 70.6332 65.5656 71.5259C66.4582 72.4186 67.669 72.9201 68.9314 72.9201Z" fill="#FFCC00"/>
</g>
<path d="M121.549 63.3472L111.023 62.9058L113.478 48.2917C113.546 47.8247 113.444 47.3491 113.19 46.9483C112.935 46.5475 112.544 46.2472 112.085 46.1001C111.626 45.953 111.129 45.9685 110.681 46.1439C110.233 46.3193 109.862 46.6434 109.634 47.0593L96.4654 71.7576C96.2721 72.1321 96.1714 72.5456 96.1714 72.965C96.1714 73.3844 96.2721 73.798 96.4654 74.1725C96.6641 74.5399 96.9465 74.8578 97.2908 75.1018C97.6351 75.3458 98.0321 75.5093 98.4513 75.5797H98.7752L109.319 76.0544L106.855 90.6852C106.776 91.1543 106.871 91.6356 107.123 92.0421C107.376 92.4486 107.769 92.7533 108.231 92.9013C108.694 93.0492 109.195 93.0305 109.645 92.8485C110.094 92.6666 110.462 92.3334 110.682 91.9093L123.876 67.1776C124.07 66.8034 124.171 66.3897 124.171 65.9702C124.171 65.5507 124.07 65.1371 123.876 64.7628C123.677 64.3918 123.392 64.0709 123.045 63.8254C122.697 63.5798 122.296 63.4161 121.873 63.3472H121.549Z" fill="#060606"/>
<path d="M121.549 63.3472L111.023 62.9058L113.478 48.2917C113.546 47.8247 113.444 47.3491 113.19 46.9483C112.935 46.5475 112.544 46.2472 112.085 46.1001C111.626 45.953 111.129 45.9685 110.681 46.1439C110.233 46.3193 109.862 46.6434 109.634 47.0593L96.4654 71.7576C96.2721 72.1321 96.1714 72.5456 96.1714 72.965C96.1714 73.3844 96.2721 73.798 96.4654 74.1725C96.6641 74.5399 96.9465 74.8578 97.2908 75.1018C97.6351 75.3458 98.0321 75.5093 98.4513 75.5797H98.7752L109.319 76.0544L106.855 90.6852C106.776 91.1543 106.871 91.6356 107.123 92.0421C107.376 92.4486 107.769 92.7533 108.231 92.9013C108.694 93.0492 109.195 93.0305 109.645 92.8485C110.094 92.6666 110.462 92.3334 110.682 91.9093L123.876 67.1776C124.07 66.8034 124.171 66.3897 124.171 65.9702C124.171 65.5507 124.07 65.1371 123.876 64.7628C123.677 64.3918 123.392 64.0709 123.045 63.8254C122.697 63.5798 122.296 63.4161 121.873 63.3472H121.549Z" fill="url(#paint0_linear)"/>
<path opacity="0.25" d="M218.639 34.5816L212.874 32.2978L217.069 24.6506C217.197 24.4043 217.233 24.1202 217.169 23.8481C217.105 23.576 216.946 23.3334 216.719 23.1628C216.493 22.9922 216.213 22.9045 215.93 22.9152C215.647 22.9259 215.378 23.0342 215.171 23.2212L203.069 34.3985C202.889 34.5692 202.753 34.7796 202.672 35.0127C202.59 35.2458 202.566 35.4951 202.601 35.7407C202.641 35.9834 202.736 36.2148 202.88 36.4171C203.024 36.6194 203.213 36.7871 203.432 36.9075L203.613 36.9702L209.381 39.2758L205.178 46.9306C205.043 47.176 205.003 47.4619 205.064 47.7367C205.126 48.0115 205.285 48.257 205.514 48.4288C205.742 48.6006 206.025 48.6873 206.31 48.6732C206.595 48.6591 206.864 48.5452 207.068 48.3521L219.191 37.1612C219.371 36.9908 219.508 36.7804 219.589 36.5473C219.67 36.3141 219.694 36.0646 219.659 35.819C219.62 35.5742 219.524 35.3408 219.378 35.137C219.232 34.9332 219.041 34.7646 218.82 34.6443L218.639 34.5816Z" fill="#FFCC00"/>
<g filter="url(#filter1_d)">
<path d="M23.1973 98.2331L19.3566 103.102L13.2329 96.8908C13.0338 96.697 12.7717 96.5817 12.4927 96.5649C12.2137 96.5482 11.9356 96.6312 11.7072 96.7993C11.4788 96.9674 11.3148 97.2099 11.2439 97.4841C11.1729 97.7584 11.1997 98.047 11.3194 98.2992L18.558 113.098C18.67 113.319 18.8325 113.51 19.0325 113.654C19.2325 113.799 19.4645 113.894 19.7098 113.93C19.9536 113.962 20.2026 113.937 20.4377 113.857C20.6728 113.777 20.8877 113.644 21.0659 113.469L21.1776 113.314L25.04 108.449L31.1688 114.67C31.3652 114.869 31.6275 114.99 31.9084 115.01C32.1894 115.03 32.4703 114.947 32.7003 114.778C32.9304 114.608 33.0944 114.362 33.1626 114.085C33.2309 113.808 33.1989 113.518 33.0725 113.266L25.8268 98.4443C25.7151 98.2227 25.5527 98.0319 25.3526 97.8872C25.1525 97.7425 24.9204 97.6481 24.675 97.6115C24.4293 97.5787 24.1781 97.6038 23.9411 97.6848C23.7041 97.7658 23.4878 97.9006 23.309 98.0786L23.1973 98.2331Z" fill="#FFCC00"/>
</g>
<g filter="url(#filter2_d)">
<path d="M185.571 13.4473L182.053 11.8201L184.939 7.19404C185.028 7.04482 185.06 6.86873 185.029 6.69667C184.999 6.52461 184.908 6.3676 184.773 6.25319C184.637 6.13878 184.466 6.07429 184.289 6.07105C184.112 6.06781 183.94 6.12602 183.804 6.23546L175.86 12.788C175.741 12.8882 175.649 13.0147 175.59 13.1574C175.531 13.3 175.508 13.4548 175.521 13.6093C175.537 13.7622 175.588 13.9099 175.671 14.0412C175.754 14.1725 175.866 14.2838 175.999 14.3666L176.109 14.4121L179.628 16.053L176.737 20.6836C176.645 20.8319 176.609 21.009 176.638 21.1827C176.667 21.3563 176.758 21.5152 176.894 21.6304C177.031 21.7456 177.204 21.8096 177.383 21.8108C177.561 21.812 177.733 21.7503 177.867 21.6369L185.825 15.0767C185.944 14.9766 186.036 14.8501 186.095 14.7074C186.154 14.5647 186.178 14.4098 186.164 14.2553C186.148 14.1012 186.097 13.9521 186.013 13.8198C185.929 13.6875 185.816 13.5756 185.682 13.4928L185.571 13.4473Z" fill="#FFCC00"/>
</g>
<g opacity="0.2" filter="url(#filter3_d)">
<path d="M58.8874 113.554L55.1658 114.638L54.3024 109.255C54.2714 109.084 54.1799 108.93 54.0439 108.82C53.908 108.71 53.7363 108.652 53.5591 108.654C53.3818 108.657 53.2103 108.721 53.0747 108.835C52.939 108.949 52.8479 109.105 52.8174 109.277L51.132 119.436C51.1086 119.59 51.1222 119.746 51.1715 119.892C51.2209 120.038 51.3046 120.17 51.4161 120.278C51.5285 120.383 51.6644 120.461 51.8131 120.505C51.9619 120.55 52.1195 120.56 52.2739 120.535L52.3868 120.497L56.1183 119.422L56.9806 124.813C57.0081 124.986 57.0979 125.142 57.2337 125.254C57.3695 125.366 57.5424 125.426 57.721 125.423C57.8996 125.421 58.0722 125.355 58.2075 125.239C58.3429 125.122 58.432 124.963 58.4588 124.789L60.1492 114.615C60.1727 114.462 60.1593 114.306 60.11 114.16C60.0606 114.013 59.9767 113.881 59.8651 113.773C59.7519 113.668 59.615 113.589 59.4649 113.544C59.3149 113.5 59.1559 113.49 59.0003 113.516L58.8874 113.554Z" fill="#FFCC00"/>
</g>
<g filter="url(#filter4_d)">
<path d="M131.333 37.0445C130.394 37.1072 129.457 36.8899 128.641 36.4201C128.099 36.1091 127.623 35.6941 127.241 35.1987C126.859 34.7034 126.579 34.1375 126.416 33.5336C126.254 32.9297 126.212 32.2996 126.293 31.6795C126.375 31.0594 126.578 30.4615 126.891 29.9201C127.361 29.1042 128.062 28.4459 128.906 28.0285C129.75 27.6111 130.699 27.4533 131.632 27.575C132.566 27.6968 133.442 28.0926 134.151 28.7125C134.859 29.3324 135.368 30.1485 135.613 31.0576C135.858 31.9666 135.827 32.9279 135.526 33.8197C135.224 34.7116 134.665 35.494 133.919 36.068C133.173 36.642 132.273 36.9818 131.333 37.0445Z" fill="#FFCC00"/>
</g>
<g filter="url(#filter5_d)">
<path d="M149.085 51.2228C148.253 51.8626 147.232 52.2096 146.182 52.21C145.344 52.2134 144.521 51.995 143.796 51.5769C143.07 51.1589 142.468 50.5561 142.052 49.83C141.525 48.9211 141.314 47.864 141.45 46.8226C141.586 45.7813 142.062 44.8139 142.803 44.0705C143.545 43.3271 144.512 42.8494 145.553 42.7114C146.594 42.5733 147.651 42.7828 148.561 43.3071C149.471 43.8315 150.183 44.6415 150.585 45.6115C150.988 46.5814 151.059 47.6572 150.788 48.6718C150.517 49.6863 149.918 50.5831 149.085 51.2228Z" fill="#FFCC00"/>
</g>
<g filter="url(#filter6_d)">
<path d="M147.769 70.8029C147.245 70.0212 146.963 69.1015 146.961 68.1601C146.96 67.535 147.082 66.9158 147.32 66.3378C147.558 65.7597 147.907 65.2343 148.349 64.7913C148.79 64.3484 149.314 63.9967 149.891 63.7562C150.468 63.5158 151.086 63.3914 151.711 63.3901C152.653 63.3881 153.574 63.6653 154.358 64.1867C155.142 64.7081 155.753 65.4503 156.115 66.3193C156.477 67.1883 156.574 68.1452 156.392 69.0689C156.21 69.9926 155.759 70.8417 155.094 71.5088C154.43 72.1759 153.583 72.631 152.66 72.8167C151.737 73.0023 150.78 72.91 149.909 72.5516C149.039 72.1931 148.294 71.5846 147.769 70.8029Z" fill="#FFCC00"/>
</g>
<g filter="url(#filter7_d)">
<path d="M146.514 93.5745C145.574 93.6371 144.637 93.4198 143.822 92.9501C143.279 92.6391 142.803 92.2241 142.421 91.7287C142.039 91.2334 141.759 90.6675 141.596 90.0636C141.434 89.4596 141.392 88.8295 141.474 88.2094C141.555 87.5893 141.758 86.9914 142.072 86.4501C142.541 85.6342 143.242 84.9759 144.086 84.5585C144.93 84.141 145.879 83.9832 146.812 84.105C147.746 84.2267 148.622 84.6226 149.331 85.2425C150.04 85.8624 150.548 86.6785 150.793 87.5875C151.038 88.4966 151.008 89.4579 150.706 90.3497C150.404 91.2416 149.845 92.0239 149.099 92.5979C148.353 93.172 147.453 93.5118 146.514 93.5745Z" fill="#FFCC00"/>
</g>
<g filter="url(#filter8_d)">
<path d="M126.801 101.896C127.217 101.049 127.875 100.344 128.692 99.8701C129.232 99.5554 129.829 99.3503 130.449 99.2665C131.068 99.1826 131.698 99.2216 132.303 99.3814C132.908 99.5411 133.475 99.8184 133.972 100.197C134.469 100.576 134.887 101.05 135.202 101.59C135.678 102.405 135.902 103.343 135.845 104.286C135.788 105.228 135.452 106.133 134.881 106.884C134.309 107.636 133.527 108.201 132.635 108.508C131.742 108.815 130.778 108.85 129.865 108.609C128.952 108.368 128.131 107.861 127.507 107.153C126.882 106.445 126.482 105.568 126.356 104.632C126.23 103.696 126.385 102.744 126.801 101.896Z" fill="#FFCC00"/>
</g>
<g filter="url(#filter9_d)">
<path d="M106.449 112.203C105.925 111.421 105.644 110.502 105.642 109.56C105.64 108.935 105.762 108.316 106 107.738C106.238 107.16 106.588 106.634 107.029 106.191C107.47 105.748 107.994 105.397 108.571 105.156C109.148 104.916 109.767 104.791 110.392 104.79C111.333 104.788 112.254 105.065 113.038 105.587C113.822 106.108 114.433 106.85 114.795 107.719C115.158 108.588 115.254 109.545 115.072 110.469C114.89 111.393 114.439 112.242 113.774 112.909C113.11 113.576 112.263 114.031 111.34 114.217C110.417 114.402 109.46 114.31 108.589 113.952C107.719 113.593 106.974 112.985 106.449 112.203Z" fill="#FFCC00"/>
</g>
<g filter="url(#filter10_d)">
<path d="M76.6032 84.6538C77.451 85.0681 78.1568 85.7246 78.6314 86.5401L78.6414 86.5501C78.9557 87.091 79.1602 87.6886 79.2434 88.3087C79.3265 88.9287 79.2866 89.5591 79.1259 90.1637C78.9652 90.7683 78.6869 91.3353 78.307 91.8323C77.927 92.3293 77.4528 92.7465 76.9114 93.0601C76.0963 93.5354 75.1585 93.7582 74.2167 93.7004C73.2749 93.6427 72.3714 93.3068 71.6204 92.7355C70.8695 92.1641 70.3049 91.3829 69.998 90.4906C69.6912 89.5983 69.6559 88.635 69.8966 87.7227C70.1372 86.8103 70.6431 85.9898 71.3502 85.365C72.0573 84.7402 72.9338 84.3391 73.8688 84.2125C74.8039 84.0859 75.7555 84.2395 76.6032 84.6538Z" fill="#FFCC00"/>
</g>
<g filter="url(#filter11_d)">
<path d="M90.0233 108.777C89.0848 108.842 88.1481 108.627 87.3316 108.16C86.2392 107.526 85.4414 106.486 85.1118 105.267C84.7822 104.048 84.9474 102.748 85.5716 101.65C86.0416 100.835 86.7425 100.178 87.5858 99.7609C88.4291 99.3441 89.377 99.1865 90.3099 99.308C91.2427 99.4296 92.1186 99.8248 92.827 100.444C93.5353 101.063 94.0444 101.878 94.2899 102.786C94.5355 103.694 94.5064 104.654 94.2064 105.546C93.9064 106.438 93.349 107.22 92.6045 107.795C91.8599 108.37 90.9617 108.712 90.0233 108.777Z" fill="#FFCC00"/>
</g>
<defs>
<filter id="filter0_d" x="53.1714" y="16.0001" width="72.925" height="72.92" filterUnits="userSpaceOnUse" color-interpolation-filters="sRGB">
<feFlood flood-opacity="0" result="BackgroundImageFix"/>
<feColorMatrix in="SourceAlpha" type="matrix" values="0 0 0 0 0 0 0 0 0 0 0 0 0 0 0 0 0 0 127 0"/>
<feOffset dy="5"/>
<feGaussianBlur stdDeviation="5.5"/>
<feColorMatrix type="matrix" values="0 0 0 0 1 0 0 0 0 0.8 0 0 0 0 0 0 0 0 0.3 0"/>
<feBlend mode="normal" in2="BackgroundImageFix" result="effect1_dropShadow"/>
<feBlend mode="normal" in="SourceGraphic" in2="effect1_dropShadow" result="shape"/>
</filter>
<filter id="filter1_d" x="0.205078" y="90.5628" width="43.9927" height="40.4498" filterUnits="userSpaceOnUse" color-interpolation-filters="sRGB">
<feFlood flood-opacity="0" result="BackgroundImageFix"/>
<feColorMatrix in="SourceAlpha" type="matrix" values="0 0 0 0 0 0 0 0 0 0 0 0 0 0 0 0 0 0 127 0"/>
<feOffset dy="5"/>
<feGaussianBlur stdDeviation="5.5"/>
<feColorMatrix type="matrix" values="0 0 0 0 1 0 0 0 0 0.8 0 0 0 0 0 0 0 0 0.3 0"/>
<feBlend mode="normal" in2="BackgroundImageFix" result="effect1_dropShadow"/>
<feBlend mode="normal" in="SourceGraphic" in2="effect1_dropShadow" result="shape"/>
</filter>
<filter id="filter2_d" x="164.517" y="0.0709229" width="32.6506" height="37.7399" filterUnits="userSpaceOnUse" color-interpolation-filters="sRGB">
<feFlood flood-opacity="0" result="BackgroundImageFix"/>
<feColorMatrix in="SourceAlpha" type="matrix" values="0 0 0 0 0 0 0 0 0 0 0 0 0 0 0 0 0 0 127 0"/>
<feOffset dy="5"/>
<feGaussianBlur stdDeviation="5.5"/>
<feColorMatrix type="matrix" values="0 0 0 0 1 0 0 0 0 0.8 0 0 0 0 0 0 0 0 0.3 0"/>
<feBlend mode="normal" in2="BackgroundImageFix" result="effect1_dropShadow"/>
<feBlend mode="normal" in="SourceGraphic" in2="effect1_dropShadow" result="shape"/>
</filter>
<filter id="filter3_d" x="40.1211" y="102.654" width="31.0396" height="38.7692" filterUnits="userSpaceOnUse" color-interpolation-filters="sRGB">
<feFlood flood-opacity="0" result="BackgroundImageFix"/>
<feColorMatrix in="SourceAlpha" type="matrix" values="0 0 0 0 0 0 0 0 0 0 0 0 0 0 0 0 0 0 127 0"/>
<feOffset dy="5"/>
<feGaussianBlur stdDeviation="5.5"/>
<feColorMatrix type="matrix" values="0 0 0 0 1 0 0 0 0 0.8 0 0 0 0 0 0 0 0 0.3 0"/>
<feBlend mode="normal" in2="BackgroundImageFix" result="effect1_dropShadow"/>
<feBlend mode="normal" in="SourceGraphic" in2="effect1_dropShadow" result="shape"/>
</filter>
<filter id="filter4_d" x="115.253" y="21.535" width="31.5237" height="31.52" filterUnits="userSpaceOnUse" color-interpolation-filters="sRGB">
<feFlood flood-opacity="0" result="BackgroundImageFix"/>
<feColorMatrix in="SourceAlpha" type="matrix" values="0 0 0 0 0 0 0 0 0 0 0 0 0 0 0 0 0 0 127 0"/>
<feOffset dy="5"/>
<feGaussianBlur stdDeviation="5.5"/>
<feColorMatrix type="matrix" values="0 0 0 0 1 0 0 0 0 0.8 0 0 0 0 0 0 0 0 0.3 0"/>
<feBlend mode="normal" in2="BackgroundImageFix" result="effect1_dropShadow"/>
<feBlend mode="normal" in="SourceGraphic" in2="effect1_dropShadow" result="shape"/>
</filter>
<filter id="filter5_d" x="130.41" y="36.67" width="31.54" height="31.54" filterUnits="userSpaceOnUse" color-interpolation-filters="sRGB">
<feFlood flood-opacity="0" result="BackgroundImageFix"/>
<feColorMatrix in="SourceAlpha" type="matrix" values="0 0 0 0 0 0 0 0 0 0 0 0 0 0 0 0 0 0 127 0"/>
<feOffset dy="5"/>
<feGaussianBlur stdDeviation="5.5"/>
<feColorMatrix type="matrix" values="0 0 0 0 1 0 0 0 0 0.8 0 0 0 0 0 0 0 0 0.3 0"/>
<feBlend mode="normal" in2="BackgroundImageFix" result="effect1_dropShadow"/>
<feBlend mode="normal" in="SourceGraphic" in2="effect1_dropShadow" result="shape"/>
</filter>
<filter id="filter6_d" x="135.961" y="57.3901" width="31.52" height="31.52" filterUnits="userSpaceOnUse" color-interpolation-filters="sRGB">
<feFlood flood-opacity="0" result="BackgroundImageFix"/>
<feColorMatrix in="SourceAlpha" type="matrix" values="0 0 0 0 0 0 0 0 0 0 0 0 0 0 0 0 0 0 127 0"/>
<feOffset dy="5"/>
<feGaussianBlur stdDeviation="5.5"/>
<feColorMatrix type="matrix" values="0 0 0 0 1 0 0 0 0 0.8 0 0 0 0 0 0 0 0 0.3 0"/>
<feBlend mode="normal" in2="BackgroundImageFix" result="effect1_dropShadow"/>
<feBlend mode="normal" in="SourceGraphic" in2="effect1_dropShadow" result="shape"/>
</filter>
<filter id="filter7_d" x="130.433" y="78.065" width="31.5237" height="31.52" filterUnits="userSpaceOnUse" color-interpolation-filters="sRGB">
<feFlood flood-opacity="0" result="BackgroundImageFix"/>
<feColorMatrix in="SourceAlpha" type="matrix" values="0 0 0 0 0 0 0 0 0 0 0 0 0 0 0 0 0 0 127 0"/>
<feOffset dy="5"/>
<feGaussianBlur stdDeviation="5.5"/>
<feColorMatrix type="matrix" values="0 0 0 0 1 0 0 0 0 0.8 0 0 0 0 0 0 0 0 0.3 0"/>
<feBlend mode="normal" in2="BackgroundImageFix" result="effect1_dropShadow"/>
<feBlend mode="normal" in="SourceGraphic" in2="effect1_dropShadow" result="shape"/>
</filter>
<filter id="filter8_d" x="115.313" y="93.2234" width="31.54" height="31.5437" filterUnits="userSpaceOnUse" color-interpolation-filters="sRGB">
<feFlood flood-opacity="0" result="BackgroundImageFix"/>
<feColorMatrix in="SourceAlpha" type="matrix" values="0 0 0 0 0 0 0 0 0 0 0 0 0 0 0 0 0 0 127 0"/>
<feOffset dy="5"/>
<feGaussianBlur stdDeviation="5.5"/>
<feColorMatrix type="matrix" values="0 0 0 0 1 0 0 0 0 0.8 0 0 0 0 0 0 0 0 0.3 0"/>
<feBlend mode="normal" in2="BackgroundImageFix" result="effect1_dropShadow"/>
<feBlend mode="normal" in="SourceGraphic" in2="effect1_dropShadow" result="shape"/>
</filter>
<filter id="filter9_d" x="94.6416" y="98.7901" width="31.52" height="31.52" filterUnits="userSpaceOnUse" color-interpolation-filters="sRGB">
<feFlood flood-opacity="0" result="BackgroundImageFix"/>
<feColorMatrix in="SourceAlpha" type="matrix" values="0 0 0 0 0 0 0 0 0 0 0 0 0 0 0 0 0 0 127 0"/>
<feOffset dy="5"/>
<feGaussianBlur stdDeviation="5.5"/>
<feColorMatrix type="matrix" values="0 0 0 0 1 0 0 0 0 0.8 0 0 0 0 0 0 0 0 0.3 0"/>
<feBlend mode="normal" in2="BackgroundImageFix" result="effect1_dropShadow"/>
<feBlend mode="normal" in="SourceGraphic" in2="effect1_dropShadow" result="shape"/>
</filter>
<filter id="filter10_d" x="58.7388" y="78.1694" width="31.5468" height="31.54" filterUnits="userSpaceOnUse" color-interpolation-filters="sRGB">
<feFlood flood-opacity="0" result="BackgroundImageFix"/>
<feColorMatrix in="SourceAlpha" type="matrix" values="0 0 0 0 0 0 0 0 0 0 0 0 0 0 0 0 0 0 127 0"/>
<feOffset dy="5"/>
<feGaussianBlur stdDeviation="5.5"/>
<feColorMatrix type="matrix" values="0 0 0 0 1 0 0 0 0 0.8 0 0 0 0 0 0 0 0 0.3 0"/>
<feBlend mode="normal" in2="BackgroundImageFix" result="effect1_dropShadow"/>
<feBlend mode="normal" in="SourceGraphic" in2="effect1_dropShadow" result="shape"/>
</filter>
<filter id="filter11_d" x="73.9458" y="93.2681" width="31.5091" height="31.52" filterUnits="userSpaceOnUse" color-interpolation-filters="sRGB">
<feFlood flood-opacity="0" result="BackgroundImageFix"/>
<feColorMatrix in="SourceAlpha" type="matrix" values="0 0 0 0 0 0 0 0 0 0 0 0 0 0 0 0 0 0 127 0"/>
<feOffset dy="5"/>
<feGaussianBlur stdDeviation="5.5"/>
<feColorMatrix type="matrix" values="0 0 0 0 1 0 0 0 0 0.8 0 0 0 0 0 0 0 0 0.3 0"/>
<feBlend mode="normal" in2="BackgroundImageFix" result="effect1_dropShadow"/>
<feBlend mode="normal" in="SourceGraphic" in2="effect1_dropShadow" result="shape"/>
</filter>
<linearGradient id="paint0_linear" x1="118.984" y1="19.4964" x2="103.091" y2="99.9971" gradientUnits="userSpaceOnUse">
<stop stop-color="white"/>
<stop offset="0.803046" stop-color="white" stop-opacity="0"/>
</linearGradient>
</defs>
</svg>
