<svg width="183" height="154" viewBox="0 0 183 154" fill="none" xmlns="http://www.w3.org/2000/svg">
<g filter="url(#filter0_d)">
<path d="M83.509 125.35C57.769 125.35 36.9482 104.644 36.9482 79.2472C36.8338 53.8504 57.769 33.144 83.509 33.144C109.249 33.144 130.07 53.8504 130.07 79.2472C130.07 104.644 109.135 125.35 83.509 125.35ZM83.509 43.3256C63.3746 43.3256 47.0154 59.456 47.0154 79.2472C47.0154 99.0384 63.3746 115.169 83.509 115.169C103.529 115.169 119.888 99.0384 119.888 79.2472C119.888 59.456 103.529 43.3256 83.509 43.3256Z" fill="#FFCC00"/>
<path d="M131.012 137.504C129.639 137.504 128.381 136.932 127.351 135.902L107.876 115.741C105.932 113.682 105.932 110.478 107.991 108.534C110.05 106.589 113.253 106.589 115.198 108.648L134.673 128.924C136.618 130.983 136.618 134.186 134.559 136.131C133.643 137.046 132.271 137.504 131.012 137.504Z" fill="#FFCC00"/>
</g>
<mask id="mask0" mask-type="alpha" maskUnits="userSpaceOnUse" x="36" y="33" width="101" height="92">
<rect x="36.1738" y="33" width="100" height="92" fill="url(#paint0_linear)"/>
</mask>
<g mask="url(#mask0)">
<path d="M85.6919 85.0278C93.1261 85.0278 99.1738 79.4138 99.1738 72.5142C99.1738 65.6145 93.1261 60 85.6919 60H76.0345C74.7573 60 73.7226 60.9609 73.7226 62.1459C73.7226 62.329 73.7497 62.506 73.7962 62.6756C73.7497 62.8453 73.7226 63.0223 73.7226 63.2054V80.7354H72.4858C71.2085 80.7354 70.1738 81.6964 70.1738 82.8813C70.1738 84.0668 71.2091 85.0272 72.4858 85.0272H73.7226V87.8087H72.4858C71.2085 87.8087 70.1738 88.7696 70.1738 89.9546C70.1738 91.1395 71.2091 92.1005 72.4858 92.1005H73.7226V95.8541C73.7226 97.0396 74.7579 98 76.0345 98C77.3118 98 78.3465 97.0391 78.3465 95.8541V92.1005H85.1683C86.4455 92.1005 87.4802 91.1395 87.4802 89.9546C87.4802 88.7696 86.4449 87.8087 85.1683 87.8087H78.3465V85.0272L85.6919 85.0278ZM78.3465 64.2923H85.6919C90.5765 64.2923 94.5499 67.9805 94.5499 72.5136C94.5499 77.0473 90.5765 80.7354 85.6919 80.7354H78.3465V64.2923Z" fill="#060606" stroke="#060606"/>
</g>
<path opacity="0.5" d="M165.753 35.383C171.199 37.3224 177.094 34.7874 178.894 29.7329C180.694 24.6783 177.728 18.9876 172.282 17.0482L165.207 14.5289C164.272 14.1957 163.263 14.6297 162.954 15.4978C162.906 15.6319 162.88 15.7687 162.87 15.9051C162.791 16.0173 162.725 16.1398 162.678 16.274L158.105 29.1161L157.198 28.7934C156.263 28.4602 155.254 28.8943 154.945 29.7624C154.636 30.6308 155.144 31.6045 156.079 31.9375L156.985 32.2602L156.259 34.2978L155.353 33.9752C154.418 33.642 153.409 34.076 153.1 34.9441C152.791 35.8121 153.298 36.7862 154.234 37.1192L155.14 37.4419L154.161 40.1917C153.851 41.0602 154.359 42.0338 155.294 42.3669C156.23 42.7001 157.239 42.266 157.548 41.3979L158.527 38.6481L163.525 40.4277C164.46 40.7609 165.469 40.3269 165.778 39.4588C166.087 38.5907 165.579 37.6167 164.644 37.2837L159.647 35.504L160.372 33.4664L165.753 35.383ZM165.781 18.2765L171.163 20.1927C174.741 21.4669 176.69 25.2053 175.507 28.5262C174.324 31.8475 170.451 33.5128 166.873 32.2385L161.492 30.3223L165.781 18.2765Z" fill="#FFCC00" stroke="#FFCC00"/>
<path opacity="0.25" d="M130.987 12.5572C133.742 11.2995 135.034 8.19557 133.867 5.63824C132.7 3.08091 129.508 2.02305 126.753 3.28072L123.173 4.91452C122.7 5.1306 122.479 5.66182 122.679 6.10101C122.71 6.16888 122.75 6.22988 122.796 6.28491C122.808 6.35566 122.828 6.42584 122.859 6.49371L125.824 12.9911L125.366 13.2004C124.892 13.4164 124.671 13.9477 124.872 14.3869C125.072 14.8263 125.619 15.0071 126.092 14.7911L126.55 14.5819L127.021 15.6128L126.562 15.822C126.089 16.0381 125.868 16.5693 126.069 17.0085C126.269 17.4477 126.815 17.6288 127.288 17.4128L127.747 17.2035L128.382 18.5948C128.582 19.0342 129.129 19.215 129.602 18.999C130.075 18.783 130.296 18.2518 130.096 17.8126L129.461 16.4213L131.989 15.2672C132.463 15.0511 132.684 14.5199 132.483 14.0807C132.283 13.6415 131.736 13.4605 131.263 13.6765L128.735 14.8306L128.264 13.7996L130.987 12.5572ZM124.756 6.11434L127.479 4.87166C129.289 4.04532 131.386 4.74009 132.153 6.42028C132.92 8.10067 132.071 10.1399 130.261 10.9662L127.538 12.2089L124.756 6.11434Z" fill="#FFCC00" stroke="#FFCC00" stroke-width="0.5"/>
<g filter="url(#filter1_d)">
<path d="M16.5071 114.581C19.1479 113.097 20.1762 109.896 18.7995 107.445C17.4229 104.994 14.1544 104.207 11.5135 105.69L8.08288 107.617C7.62917 107.872 7.45334 108.419 7.68976 108.84C7.72629 108.905 7.77125 108.963 7.8216 109.014C7.83895 109.083 7.86462 109.152 7.90115 109.217L11.3988 115.444L10.9594 115.691C10.5057 115.946 10.3298 116.493 10.5663 116.914C10.8028 117.335 11.3622 117.47 11.8157 117.215L12.2551 116.969L12.81 117.957L12.3707 118.203C11.9169 118.458 11.7411 119.006 11.9775 119.427C12.214 119.848 12.7735 119.983 13.227 119.728L13.6663 119.481L14.4152 120.815C14.6518 121.236 15.2112 121.37 15.6647 121.116C16.1184 120.861 16.2942 120.313 16.0578 119.892L15.3089 118.559L17.7322 117.198C18.1859 116.943 18.3617 116.395 18.1253 115.974C17.8889 115.553 17.3294 115.418 16.8759 115.673L14.4526 117.034L13.8976 116.046L16.5071 114.581ZM9.76057 108.68L12.3699 107.215C14.1051 106.24 16.2524 106.758 17.1569 108.368C18.0614 109.978 17.3858 112.081 15.6507 113.056L13.0413 114.521L9.76057 108.68Z" fill="#FFCC00"/>
<path d="M16.5071 114.581C19.1479 113.097 20.1762 109.896 18.7995 107.445C17.4229 104.994 14.1544 104.207 11.5135 105.69L8.08288 107.617C7.62917 107.872 7.45334 108.419 7.68976 108.84C7.72629 108.905 7.77125 108.963 7.8216 109.014C7.83895 109.083 7.86462 109.152 7.90115 109.217L11.3988 115.444L10.9594 115.691C10.5057 115.946 10.3298 116.493 10.5663 116.914C10.8028 117.335 11.3622 117.47 11.8157 117.215L12.2551 116.969L12.81 117.957L12.3707 118.203C11.9169 118.458 11.7411 119.006 11.9775 119.427C12.214 119.848 12.7735 119.983 13.227 119.728L13.6663 119.481L14.4152 120.815C14.6518 121.236 15.2112 121.37 15.6647 121.116C16.1184 120.861 16.2942 120.313 16.0578 119.892L15.3089 118.559L17.7322 117.198C18.1859 116.943 18.3617 116.395 18.1253 115.974C17.8889 115.553 17.3294 115.418 16.8759 115.673L14.4526 117.034L13.8976 116.046L16.5071 114.581ZM9.76057 108.68L12.3699 107.215C14.1051 106.24 16.2524 106.758 17.1569 108.368C18.0614 109.978 17.3858 112.081 15.6507 113.056L13.0413 114.521L9.76057 108.68Z" stroke="#FFCC00" stroke-width="0.75"/>
</g>
<defs>
<filter id="filter0_d" x="25.9478" y="27.144" width="121.17" height="126.36" filterUnits="userSpaceOnUse" color-interpolation-filters="sRGB">
<feFlood flood-opacity="0" result="BackgroundImageFix"/>
<feColorMatrix in="SourceAlpha" type="matrix" values="0 0 0 0 0 0 0 0 0 0 0 0 0 0 0 0 0 0 127 0"/>
<feOffset dy="5"/>
<feGaussianBlur stdDeviation="5.5"/>
<feColorMatrix type="matrix" values="0 0 0 0 1 0 0 0 0 0.8 0 0 0 0 0 0 0 0 0.3 0"/>
<feBlend mode="normal" in2="BackgroundImageFix" result="effect1_dropShadow"/>
<feBlend mode="normal" in="SourceGraphic" in2="effect1_dropShadow" result="shape"/>
</filter>
<filter id="filter1_d" x="0.490234" y="102.489" width="28.9047" height="30.3061" filterUnits="userSpaceOnUse" color-interpolation-filters="sRGB">
<feFlood flood-opacity="0" result="BackgroundImageFix"/>
<feColorMatrix in="SourceAlpha" type="matrix" values="0 0 0 0 0 0 0 0 0 0 0 0 0 0 0 0 0 0 127 0"/>
<feOffset dy="5"/>
<feGaussianBlur stdDeviation="2.5"/>
<feColorMatrix type="matrix" values="0 0 0 0 1 0 0 0 0 0.8 0 0 0 0 0 0 0 0 0.3 0"/>
<feBlend mode="normal" in2="BackgroundImageFix" result="effect1_dropShadow"/>
<feBlend mode="normal" in="SourceGraphic" in2="effect1_dropShadow" result="shape"/>
</filter>
<linearGradient id="paint0_linear" x1="73.6738" y1="114.88" x2="100.202" y2="10.7013" gradientUnits="userSpaceOnUse">
<stop offset="0.161484" stop-color="white"/>
<stop offset="1" stop-color="white" stop-opacity="0"/>
</linearGradient>
</defs>
</svg>
