<svg width="215" height="124" viewBox="0 0 215 124" fill="none" xmlns="http://www.w3.org/2000/svg">
<g filter="url(#filter0_d)">
<path d="M114.171 15C101.884 15 90.3265 19.8329 81.6302 28.6149C63.6909 46.7474 63.6832 76.2483 81.6302 94.3846C90.3129 103.165 101.871 107.998 114.164 108C126.456 107.998 138.018 103.161 146.712 94.3766C164.66 76.2442 164.66 46.7433 146.712 28.6149C138.028 19.8368 126.467 15 114.171 15ZM114.171 22.8973H114.188C124.392 22.8973 133.988 26.9131 141.202 34.1985C156.097 49.2469 156.097 73.7409 141.202 88.7933C133.98 96.0865 124.385 100.102 114.172 100.102C103.967 100.102 94.3722 96.0903 87.1575 88.801C72.255 73.7447 72.255 49.251 87.1575 34.1985C94.3722 26.9131 103.967 22.8973 114.171 22.8973Z" fill="#FFCC00"/>
</g>
<path d="M127.851 43.3594C128.621 42.4155 129.736 41.9213 130.863 41.9163C131.739 41.9124 132.622 42.2041 133.354 42.8105C135.027 44.1965 135.262 46.6802 133.898 48.3703L111.522 75.9281C110.811 76.8048 109.767 77.3258 108.645 77.3692C108.606 77.3776 108.559 77.3776 108.505 77.3776C107.438 77.3776 106.414 76.9353 105.671 76.1496L95.5329 65.3934C94.044 63.814 94.1065 61.3143 95.6698 59.8098C97.2254 58.3054 99.6995 58.3645 101.196 59.9481L108.286 67.4663L127.851 43.3594Z" fill="#060606"/>
<path d="M127.851 43.3594C128.621 42.4155 129.736 41.9213 130.863 41.9163C131.739 41.9124 132.622 42.2041 133.354 42.8105C135.027 44.1965 135.262 46.6802 133.898 48.3703L111.522 75.9281C110.811 76.8048 109.767 77.3258 108.645 77.3692C108.606 77.3776 108.559 77.3776 108.505 77.3776C107.438 77.3776 106.414 76.9353 105.671 76.1496L95.5329 65.3934C94.044 63.814 94.1065 61.3143 95.6698 59.8098C97.2254 58.3054 99.6995 58.3645 101.196 59.9481L108.286 67.4663L127.851 43.3594Z" fill="url(#paint0_linear)"/>
<g filter="url(#filter1_d)">
<path d="M30.6801 8.04304C30.9587 7.36437 31.5156 6.88458 32.1644 6.68485C32.669 6.5295 33.229 6.54348 33.7569 6.76528C34.9636 7.27213 35.5327 8.6632 35.0415 9.87597L26.9544 29.6739C26.6975 30.3036 26.187 30.7862 25.5477 31.0073C25.5266 31.0189 25.4996 31.0271 25.4681 31.0366C24.8529 31.2231 24.1853 31.1469 23.6198 30.8236L15.8953 26.393C14.7609 25.7424 14.3603 24.2902 14.9988 23.1497C15.6329 22.0106 17.0698 21.6125 18.2094 22.264L23.6105 25.3603L30.6801 8.04304Z" fill="#FFCC00"/>
</g>
<path opacity="0.25" d="M210.748 100.329C211.388 100.161 212.037 100.301 212.534 100.659C212.92 100.938 213.215 101.349 213.343 101.85C213.634 102.995 212.942 104.162 211.801 104.468L193.139 109.417C192.546 109.575 191.921 109.469 191.413 109.129C191.394 109.12 191.373 109.105 191.349 109.088C190.88 108.746 190.571 108.224 190.497 107.641L189.484 99.6655C189.336 98.4943 190.164 97.4155 191.333 97.2548C192.498 97.0917 193.567 97.91 193.718 99.0854L194.427 104.661L210.748 100.329Z" fill="#FFCC00"/>
<path d="M52.6059 37.7806L52.6055 37.7809L46.8763 41.9793L45.8352 40.0713L45.8351 40.071C45.52 39.495 44.8009 39.2865 44.2297 39.6073C43.6598 39.9261 43.4508 40.6482 43.7638 41.2221C43.7638 41.2221 43.7638 41.2221 43.7638 41.2221L45.4478 44.3103L45.448 44.3106C45.6041 44.596 45.8691 44.8042 46.1819 44.8862C46.1822 44.8863 46.1827 44.8864 46.1833 44.8866C46.1894 44.8883 46.211 44.8942 46.2375 44.8979C46.5646 44.9664 46.9042 44.8933 47.1752 44.6946L53.99 39.7029L53.9906 39.7024C54.5155 39.3156 54.6382 38.5755 54.2561 38.0429C54.089 37.8098 53.8527 37.6564 53.596 37.5902C53.2664 37.5053 52.9024 37.5643 52.6059 37.7806Z" fill="#FFCC00" stroke="#FFCC00" stroke-width="0.5"/>
<path opacity="0.2" d="M39.5835 97.2989L39.5833 97.2994L36.5287 111.076L32.2976 109.526L32.2973 109.525C31.2186 109.132 30.0351 109.687 29.6551 110.765C29.2731 111.843 29.832 113.034 30.9057 113.428C30.9057 113.428 30.9057 113.428 30.9057 113.428L37.3408 115.787L37.3411 115.787C37.876 115.982 38.4638 115.95 38.9685 115.697C38.9697 115.697 38.971 115.696 38.9726 115.695C38.9871 115.688 39.0172 115.673 39.0474 115.653C39.5596 115.366 39.9239 114.877 40.0515 114.301L43.6181 98.2324L43.6182 98.2317C43.8625 97.1159 43.1685 96.0008 42.0525 95.7415C41.5642 95.628 41.0776 95.6986 40.6645 95.9075C40.1338 96.1758 39.7237 96.6725 39.5835 97.2989Z" fill="#FFCC00" stroke="#FFCC00" stroke-width="0.5"/>
<defs>
<filter id="filter0_d" x="57.1729" y="9" width="114" height="115" filterUnits="userSpaceOnUse" color-interpolation-filters="sRGB">
<feFlood flood-opacity="0" result="BackgroundImageFix"/>
<feColorMatrix in="SourceAlpha" type="matrix" values="0 0 0 0 0 0 0 0 0 0 0 0 0 0 0 0 0 0 127 0"/>
<feOffset dy="5"/>
<feGaussianBlur stdDeviation="5.5"/>
<feColorMatrix type="matrix" values="0 0 0 0 1 0 0 0 0 0.8 0 0 0 0 0 0 0 0 0.3 0"/>
<feBlend mode="normal" in2="BackgroundImageFix" result="effect1_dropShadow"/>
<feBlend mode="normal" in="SourceGraphic" in2="effect1_dropShadow" result="shape"/>
</filter>
<filter id="filter1_d" x="0.172852" y="0" width="51.4467" height="49.491" filterUnits="userSpaceOnUse" color-interpolation-filters="sRGB">
<feFlood flood-opacity="0" result="BackgroundImageFix"/>
<feColorMatrix in="SourceAlpha" type="matrix" values="0 0 0 0 0 0 0 0 0 0 0 0 0 0 0 0 0 0 127 0"/>
<feOffset dy="5"/>
<feGaussianBlur stdDeviation="5.5"/>
<feColorMatrix type="matrix" values="0 0 0 0 1 0 0 0 0 0.8 0 0 0 0 0 0 0 0 0.3 0"/>
<feBlend mode="normal" in2="BackgroundImageFix" result="effect1_dropShadow"/>
<feBlend mode="normal" in="SourceGraphic" in2="effect1_dropShadow" result="shape"/>
</filter>
<linearGradient id="paint0_linear" x1="131.673" y1="-4" x2="105.673" y2="81.5" gradientUnits="userSpaceOnUse">
<stop stop-color="white"/>
<stop offset="1" stop-color="white" stop-opacity="0"/>
</linearGradient>
</defs>
</svg>
