<svg width="212" height="134" viewBox="0 0 212 134" fill="none" xmlns="http://www.w3.org/2000/svg">
<path d="M131.4 50H154.5C156.3 50 157.8 48.5 157.8 46.7C157.8 44.9 156.2 43.5 154.5 43.5H131.4C129.6 43.5 128.1 45 128.1 46.8C128.1 48.6 129.6 50 131.4 50Z" fill="#060606"/>
<path d="M131.4 50H154.5C156.3 50 157.8 48.5 157.8 46.7C157.8 44.9 156.2 43.5 154.5 43.5H131.4C129.6 43.5 128.1 45 128.1 46.8C128.1 48.6 129.6 50 131.4 50Z" fill="url(#paint0_linear)"/>
<path d="M104.9 54.1C105.5 54.8 106.4 55.1 107.3 55.1C108.2 55.1 109.1 54.7 109.7 54.1L119.3 43.7C120.5 42.4 120.4 40.3 119.1 39.1C117.8 37.9 115.7 38 114.5 39.3L107.3 47.1L104.6 44.2C103.4 42.9 101.3 42.8 99.9999 44C98.6999 45.2 98.5999 47.3 99.7999 48.6L104.9 54.1Z" fill="#060606"/>
<path d="M104.9 54.1C105.5 54.8 106.4 55.1 107.3 55.1C108.2 55.1 109.1 54.7 109.7 54.1L119.3 43.7C120.5 42.4 120.4 40.3 119.1 39.1C117.8 37.9 115.7 38 114.5 39.3L107.3 47.1L104.6 44.2C103.4 42.9 101.3 42.8 99.9999 44C98.6999 45.2 98.5999 47.3 99.7999 48.6L104.9 54.1Z" fill="url(#paint1_linear)"/>
<path d="M131.4 72.8H154.5C156.3 72.8 157.8 71.3 157.8 69.5C157.8 67.7 156.3 66.2 154.5 66.2H131.4C129.6 66.2 128.1 67.7 128.1 69.5C128.1 71.3 129.6 72.8 131.4 72.8Z" fill="#060606"/>
<path d="M131.4 72.8H154.5C156.3 72.8 157.8 71.3 157.8 69.5C157.8 67.7 156.3 66.2 154.5 66.2H131.4C129.6 66.2 128.1 67.7 128.1 69.5C128.1 71.3 129.6 72.8 131.4 72.8Z" fill="url(#paint2_linear)"/>
<path d="M104.9 76.9C105.5 77.6 106.4 77.9 107.3 77.9C108.2 77.9 109.1 77.5 109.7 76.9L119.3 66.5C120.5 65.2 120.4 63.1 119.1 61.9C117.8 60.7 115.7 60.8 114.5 62.1L107.3 69.9L104.6 67C103.4 65.7 101.3 65.6 99.9999 66.8C98.6999 68 98.5999 70.1 99.7999 71.4L104.9 76.9Z" fill="#060606"/>
<path d="M104.9 76.9C105.5 77.6 106.4 77.9 107.3 77.9C108.2 77.9 109.1 77.5 109.7 76.9L119.3 66.5C120.5 65.2 120.4 63.1 119.1 61.9C117.8 60.7 115.7 60.8 114.5 62.1L107.3 69.9L104.6 67C103.4 65.7 101.3 65.6 99.9999 66.8C98.6999 68 98.5999 70.1 99.7999 71.4L104.9 76.9Z" fill="url(#paint3_linear)"/>
<path d="M131.4 95.5H154.5C156.3 95.5 157.8 94 157.8 92.2C157.8 90.4 156.3 88.9 154.5 88.9H131.4C129.6 88.9 128.1 90.4 128.1 92.2C128.1 94.1 129.6 95.5 131.4 95.5Z" fill="#060606"/>
<path d="M131.4 95.5H154.5C156.3 95.5 157.8 94 157.8 92.2C157.8 90.4 156.3 88.9 154.5 88.9H131.4C129.6 88.9 128.1 90.4 128.1 92.2C128.1 94.1 129.6 95.5 131.4 95.5Z" fill="url(#paint4_linear)"/>
<path d="M104.9 99.7C105.5 100.4 106.4 100.7 107.3 100.7C108.2 100.7 109.1 100.3 109.7 99.7L119.3 89.3C120.5 88 120.4 85.9 119.1 84.7C117.8 83.5 115.7 83.6 114.5 84.9L107.3 92.7L104.6 89.8C103.4 88.5 101.3 88.4 99.9999 89.6C98.6999 90.8 98.5999 92.9 99.7999 94.2L104.9 99.7Z" fill="#060606"/>
<path d="M104.9 99.7C105.5 100.4 106.4 100.7 107.3 100.7C108.2 100.7 109.1 100.3 109.7 99.7L119.3 89.3C120.5 88 120.4 85.9 119.1 84.7C117.8 83.5 115.7 83.6 114.5 84.9L107.3 92.7L104.6 89.8C103.4 88.5 101.3 88.4 99.9999 89.6C98.6999 90.8 98.5999 92.9 99.7999 94.2L104.9 99.7Z" fill="url(#paint5_linear)"/>
<g filter="url(#filter0_d)">
<path d="M170.3 22H86.3C84.5 22 83 23.5 83 25.3V113.8C83 115.6 84.5 117.1 86.3 117.1H170.3C172.1 117.1 173.6 115.6 173.6 113.8V25.3C173.6 23.5 172.1 22 170.3 22ZM167.1 110.5H89.5V28.5H167.1V110.5Z" fill="#FFCC00"/>
</g>
<path opacity="0.5" d="M198.797 11.0289C198.982 11.5989 199.445 12.0007 199.983 12.2212C200.521 12.4417 201.158 12.4204 201.665 12.2048L209.978 8.27124C211.017 7.77955 211.478 6.4859 210.999 5.44221C210.519 4.39851 209.239 3.9445 208.2 4.43619L201.965 7.38634L201.071 4.97227C200.676 3.89264 199.446 3.31776 198.371 3.72452C197.297 4.13127 196.717 5.37592 197.112 6.45556L198.797 11.0289Z" fill="#FFCC00"/>
<path opacity="0.5" d="M195.406 25.9075L207.442 34.7218C208.38 35.4086 209.74 35.1905 210.435 34.242C211.13 33.2934 210.836 31.9451 209.951 31.2965L197.915 22.4822C196.977 21.7954 195.616 22.0135 194.922 22.962C194.227 23.9106 194.468 25.2207 195.406 25.9075Z" fill="#FFCC00"/>
<g filter="url(#filter1_d)">
<path d="M20.7245 109.756C21.431 110.155 22.261 110.131 22.9992 109.858C23.7373 109.586 24.3529 108.981 24.6612 108.302L29.3489 96.7678C29.9348 95.326 29.2096 93.6144 27.7758 93.0127C26.3421 92.4111 24.6504 93.13 24.0644 94.5718L20.5487 103.222L17.446 101.635C16.0637 100.92 14.3107 101.473 13.6121 102.862C12.9135 104.251 13.4748 106.023 14.8571 106.738L20.7245 109.756Z" fill="#FFCC00"/>
</g>
<g filter="url(#filter2_d)">
<path d="M32.7166 76.3834L51.7326 83.1843C53.2144 83.7143 54.8959 82.907 55.4318 81.4084C55.9678 79.9097 55.0676 78.273 53.6681 77.7725L34.6521 70.9716C33.1704 70.4416 31.4889 71.2489 30.9529 72.7475C30.4169 74.2462 31.2348 75.8535 32.7166 76.3834Z" fill="#FFCC00"/>
</g>
<defs>
<filter id="filter0_d" x="72" y="16" width="112.6" height="117.1" filterUnits="userSpaceOnUse" color-interpolation-filters="sRGB">
<feFlood flood-opacity="0" result="BackgroundImageFix"/>
<feColorMatrix in="SourceAlpha" type="matrix" values="0 0 0 0 0 0 0 0 0 0 0 0 0 0 0 0 0 0 127 0"/>
<feOffset dy="5"/>
<feGaussianBlur stdDeviation="5.5"/>
<feColorMatrix type="matrix" values="0 0 0 0 1 0 0 0 0 0.8 0 0 0 0 0 0 0 0 0.3 0"/>
<feBlend mode="normal" in2="BackgroundImageFix" result="effect1_dropShadow"/>
<feBlend mode="normal" in="SourceGraphic" in2="effect1_dropShadow" result="shape"/>
</filter>
<filter id="filter1_d" x="0" y="86" width="44.5304" height="42.3843" filterUnits="userSpaceOnUse" color-interpolation-filters="sRGB">
<feFlood flood-opacity="0" result="BackgroundImageFix"/>
<feColorMatrix in="SourceAlpha" type="matrix" values="0 0 0 0 0 0 0 0 0 0 0 0 0 0 0 0 0 0 127 0"/>
<feOffset dy="5"/>
<feGaussianBlur stdDeviation="5.5"/>
<feColorMatrix type="matrix" values="0 0 0 0 1 0 0 0 0 0.8 0 0 0 0 0 0 0 0 0.3 0"/>
<feBlend mode="normal" in2="BackgroundImageFix" result="effect1_dropShadow"/>
<feBlend mode="normal" in="SourceGraphic" in2="effect1_dropShadow" result="shape"/>
</filter>
<filter id="filter2_d" x="19" y="64" width="48.3847" height="36.1559" filterUnits="userSpaceOnUse" color-interpolation-filters="sRGB">
<feFlood flood-opacity="0" result="BackgroundImageFix"/>
<feColorMatrix in="SourceAlpha" type="matrix" values="0 0 0 0 0 0 0 0 0 0 0 0 0 0 0 0 0 0 127 0"/>
<feOffset dy="5"/>
<feGaussianBlur stdDeviation="5.5"/>
<feColorMatrix type="matrix" values="0 0 0 0 1 0 0 0 0 0.8 0 0 0 0 0 0 0 0 0.3 0"/>
<feBlend mode="normal" in2="BackgroundImageFix" result="effect1_dropShadow"/>
<feBlend mode="normal" in="SourceGraphic" in2="effect1_dropShadow" result="shape"/>
</filter>
<linearGradient id="paint0_linear" x1="128.379" y1="-9" x2="128.379" y2="101" gradientUnits="userSpaceOnUse">
<stop stop-color="white"/>
<stop offset="1" stop-color="white" stop-opacity="0"/>
</linearGradient>
<linearGradient id="paint1_linear" x1="128.379" y1="-9" x2="128.379" y2="101" gradientUnits="userSpaceOnUse">
<stop stop-color="white"/>
<stop offset="1" stop-color="white" stop-opacity="0"/>
</linearGradient>
<linearGradient id="paint2_linear" x1="128.379" y1="-9" x2="128.379" y2="101" gradientUnits="userSpaceOnUse">
<stop stop-color="white"/>
<stop offset="1" stop-color="white" stop-opacity="0"/>
</linearGradient>
<linearGradient id="paint3_linear" x1="128.379" y1="-9" x2="128.379" y2="101" gradientUnits="userSpaceOnUse">
<stop stop-color="white"/>
<stop offset="1" stop-color="white" stop-opacity="0"/>
</linearGradient>
<linearGradient id="paint4_linear" x1="128.379" y1="-9" x2="128.379" y2="101" gradientUnits="userSpaceOnUse">
<stop stop-color="white"/>
<stop offset="1" stop-color="white" stop-opacity="0"/>
</linearGradient>
<linearGradient id="paint5_linear" x1="128.379" y1="-9" x2="128.379" y2="101" gradientUnits="userSpaceOnUse">
<stop stop-color="white"/>
<stop offset="1" stop-color="white" stop-opacity="0"/>
</linearGradient>
</defs>
</svg>
