<svg width="186" height="144" viewBox="0 0 186 144" fill="none" xmlns="http://www.w3.org/2000/svg">
<g filter="url(#filter0_d)">
<path d="M71.956 124.141C70.8064 124.337 69.8999 123.922 69.1296 122.49C68.2809 120.911 67.959 118.526 68.4799 116.322C69.4657 112.15 67.6017 107.906 64.9007 105.34C57.1467 97.9733 52.5 88.2072 52.5 77.5599C52.5 55.2819 73.1182 36.5 99.5 36.5C125.882 36.5 146.5 55.2819 146.5 77.5599C146.5 99.8378 125.882 118.62 99.5 118.62C97.0263 118.62 94.5992 118.453 92.2323 118.132C88.2157 117.587 84.2618 118.647 81.0043 120.667C78.1213 122.455 75.1109 123.603 71.956 124.141Z" stroke="#FFCC00" stroke-width="7"/>
</g>
<g filter="url(#filter1_d)">
<path d="M161.517 39.0063L160.741 39.6363L161.517 39.0063C159.977 37.1076 159.22 34.7621 159.541 32.3627C160.209 27.3732 165.405 23.7433 171.381 24.5434C177.357 25.3435 181.415 30.2123 180.747 35.2019C180.079 40.1915 174.883 43.8213 168.907 43.0212C168.267 42.9355 167.648 42.8023 167.053 42.6266C166.248 42.3887 165.406 42.495 164.694 42.8442C163.901 43.2334 163.099 43.429 162.28 43.4433C162.175 43.4451 162.131 43.418 162.102 43.3938C162.059 43.3588 161.991 43.2773 161.935 43.1146C161.817 42.7719 161.824 42.2688 161.991 41.8389C162.013 41.7828 162.034 41.7263 162.055 41.6693C162.424 40.6576 162.05 39.6629 161.517 39.0063Z" stroke="#FFCC00" stroke-width="2"/>
</g>
<path opacity="0.25" d="M44.7174 136.492C44.7375 136.493 44.7509 136.492 44.7584 136.491C44.7616 136.491 44.7639 136.491 44.7655 136.49C44.7755 136.481 44.8148 136.442 44.856 136.338C44.9591 136.078 44.9754 135.652 44.8355 135.267C44.4384 134.173 44.8108 133.008 45.4276 132.268C46.8977 130.503 47.6337 128.321 47.3716 126.078C46.825 121.4 42.0005 117.86 36.2974 118.527C30.5942 119.193 26.7157 123.75 27.2623 128.428C27.8089 133.106 32.6334 136.646 38.3366 135.979C38.8692 135.917 39.3873 135.82 39.8882 135.692L40.198 136.899L39.8882 135.692C40.8889 135.435 41.9098 135.589 42.7739 135.994C43.414 136.295 44.0595 136.457 44.7174 136.492Z" stroke="#FFCC00" stroke-width="2.49272"/>
<path opacity="0.25" d="M145.618 16.3644C145.555 16.3908 145.528 16.3835 145.514 16.3793C145.489 16.372 145.435 16.3463 145.366 16.268C145.218 16.1007 145.1 15.8013 145.101 15.4942C145.103 14.7389 144.617 14.1016 144.069 13.7804C142.678 12.9651 141.669 11.6959 141.306 10.1454C140.55 6.90724 142.907 3.42906 146.814 2.51625C150.72 1.60344 154.375 3.6766 155.132 6.91472C155.889 10.1528 153.531 13.631 149.624 14.5438C149.348 14.6083 149.073 14.6578 148.8 14.6929C147.952 14.8017 147.207 15.2122 146.619 15.7313C146.313 16.002 145.98 16.2119 145.618 16.3644Z" stroke="#FFCC00" stroke-width="1.5"/>
<path d="M89 78C89 81.3137 86.3137 84 83 84C79.6863 84 77 81.3137 77 78C77 74.6863 79.6863 72 83 72C86.3137 72 89 74.6863 89 78Z" fill="#060606"/>
<path d="M89 78C89 81.3137 86.3137 84 83 84C79.6863 84 77 81.3137 77 78C77 74.6863 79.6863 72 83 72C86.3137 72 89 74.6863 89 78Z" fill="url(#paint0_linear)"/>
<path d="M106 78C106 81.3137 103.314 84 100 84C96.6863 84 94 81.3137 94 78C94 74.6863 96.6863 72 100 72C103.314 72 106 74.6863 106 78Z" fill="#060606"/>
<path d="M106 78C106 81.3137 103.314 84 100 84C96.6863 84 94 81.3137 94 78C94 74.6863 96.6863 72 100 72C103.314 72 106 74.6863 106 78Z" fill="url(#paint1_linear)"/>
<path d="M123 78C123 81.3137 120.314 84 117 84C113.686 84 111 81.3137 111 78C111 74.6863 113.686 72 117 72C120.314 72 123 74.6863 123 78Z" fill="#060606"/>
<path d="M123 78C123 81.3137 120.314 84 117 84C113.686 84 111 81.3137 111 78C111 74.6863 113.686 72 117 72C120.314 72 123 74.6863 123 78Z" fill="url(#paint2_linear)"/>
<g filter="url(#filter2_d)">
<circle cx="14.1815" cy="125.012" r="2.5" transform="rotate(4.2378 14.1815 125.012)" fill="#FFCC00"/>
</g>
<defs>
<filter id="filter0_d" x="38" y="27" width="123" height="116.688" filterUnits="userSpaceOnUse" color-interpolation-filters="sRGB">
<feFlood flood-opacity="0" result="BackgroundImageFix"/>
<feColorMatrix in="SourceAlpha" type="matrix" values="0 0 0 0 0 0 0 0 0 0 0 0 0 0 0 0 0 0 127 0"/>
<feOffset dy="5"/>
<feGaussianBlur stdDeviation="5.5"/>
<feColorMatrix type="matrix" values="0 0 0 0 1 0 0 0 0 0.8 0 0 0 0 0 0 0 0 0.3 0"/>
<feBlend mode="normal" in2="BackgroundImageFix" result="effect1_dropShadow"/>
<feBlend mode="normal" in="SourceGraphic" in2="effect1_dropShadow" result="shape"/>
</filter>
<filter id="filter1_d" x="155.021" y="20.9162" width="30.0739" height="28.8303" filterUnits="userSpaceOnUse" color-interpolation-filters="sRGB">
<feFlood flood-opacity="0" result="BackgroundImageFix"/>
<feColorMatrix in="SourceAlpha" type="matrix" values="0 0 0 0 0 0 0 0 0 0 0 0 0 0 0 0 0 0 127 0"/>
<feOffset dy="0.903178"/>
<feGaussianBlur stdDeviation="0.993496"/>
<feColorMatrix type="matrix" values="0 0 0 0 1 0 0 0 0 0.8 0 0 0 0 0 0 0 0 0.3 0"/>
<feBlend mode="normal" in2="BackgroundImageFix" result="effect1_dropShadow"/>
<feBlend mode="normal" in="SourceGraphic" in2="effect1_dropShadow" result="shape"/>
</filter>
<filter id="filter2_d" x="0.503906" y="116.334" width="27.3558" height="27.3558" filterUnits="userSpaceOnUse" color-interpolation-filters="sRGB">
<feFlood flood-opacity="0" result="BackgroundImageFix"/>
<feColorMatrix in="SourceAlpha" type="matrix" values="0 0 0 0 0 0 0 0 0 0 0 0 0 0 0 0 0 0 127 0"/>
<feOffset dy="5"/>
<feGaussianBlur stdDeviation="5.5"/>
<feColorMatrix type="matrix" values="0 0 0 0 1 0 0 0 0 0.8 0 0 0 0 0 0 0 0 0.3 0"/>
<feBlend mode="normal" in2="BackgroundImageFix" result="effect1_dropShadow"/>
<feBlend mode="normal" in="SourceGraphic" in2="effect1_dropShadow" result="shape"/>
</filter>
<linearGradient id="paint0_linear" x1="117" y1="64" x2="117" y2="84" gradientUnits="userSpaceOnUse">
<stop stop-color="white"/>
<stop offset="1" stop-color="white" stop-opacity="0"/>
</linearGradient>
<linearGradient id="paint1_linear" x1="117" y1="64" x2="117" y2="84" gradientUnits="userSpaceOnUse">
<stop stop-color="white"/>
<stop offset="1" stop-color="white" stop-opacity="0"/>
</linearGradient>
<linearGradient id="paint2_linear" x1="117" y1="64" x2="117" y2="84" gradientUnits="userSpaceOnUse">
<stop stop-color="white"/>
<stop offset="1" stop-color="white" stop-opacity="0"/>
</linearGradient>
</defs>
</svg>
