<svg width="264" height="31" viewBox="0 0 264 31" fill="none" xmlns="http://www.w3.org/2000/svg">
<path d="M34.6591 16.1298H45.7889V14.8084H34.6591V16.1298ZM45.7889 15.4691C45.7889 16.6041 45.6026 17.646 45.2299 18.5946C44.8572 19.5263 44.3405 20.3395 43.6798 21.034C43.0361 21.7116 42.2738 22.2368 41.3929 22.6095C40.5289 22.9822 39.5972 23.1685 38.5977 23.1685C37.7677 23.1685 36.9969 23.0753 36.2854 22.889C35.5908 22.6857 34.964 22.4062 34.405 22.0504C33.846 21.6778 33.3378 21.2373 32.8804 20.7291V22.6095C33.6258 23.2701 34.4389 23.7699 35.3198 24.1087C36.2176 24.4306 37.3103 24.5915 38.5977 24.5915C39.8344 24.5915 40.9779 24.3713 42.0282 23.9308C43.0785 23.4734 43.9932 22.8382 44.7725 22.025C45.5687 21.2119 46.187 20.2463 46.6275 19.1282C47.0679 18.0102 47.2881 16.7905 47.2881 15.4691C47.2881 14.1478 47.0679 12.9281 46.6275 11.81C46.187 10.6919 45.5687 9.72634 44.7725 8.91321C43.9932 8.10007 43.0785 7.47328 42.0282 7.03283C40.9779 6.57544 39.8344 6.34675 38.5977 6.34675C37.3103 6.34675 36.2176 6.51615 35.3198 6.85496C34.4389 7.17682 33.6258 7.66809 32.8804 8.32877V10.1837C33.3208 9.67552 33.829 9.24355 34.405 8.8878C34.981 8.51511 35.6162 8.2356 36.3108 8.04925C37.0223 7.86291 37.7846 7.76974 38.5977 7.76974C39.5972 7.76974 40.5289 7.95608 41.3929 8.32877C42.2738 8.70145 43.0361 9.23507 43.6798 9.92963C44.3405 10.6072 44.8572 11.4204 45.2299 12.369C45.6026 13.3008 45.7889 14.3341 45.7889 15.4691ZM50.8347 18.7979H59.3726V17.5528H50.8347V18.7979ZM58.5595 12.674V24.3628H59.8808V12.674H58.5595ZM50.047 12.674V24.3628H51.3683V12.674H50.047ZM63.3648 18.8487H73.4528C73.4697 18.7471 73.4782 18.6454 73.4782 18.5438C73.4952 18.4252 73.5036 18.3151 73.5036 18.2135C73.5036 17.0446 73.2665 16.0281 72.7921 15.1642C72.3178 14.3002 71.6741 13.6311 70.8609 13.1568C70.0647 12.6655 69.1584 12.4199 68.142 12.4199C67.2103 12.4199 66.3633 12.6147 65.601 13.0043C64.8386 13.377 64.2034 13.9106 63.6952 14.6052C63.2039 15.2828 62.8651 16.0705 62.6788 16.9683C62.611 17.2055 62.5686 17.4511 62.5517 17.7052C62.5348 17.9593 62.5263 18.2219 62.5263 18.493C62.5263 19.6619 62.7635 20.7122 63.2378 21.6439C63.7121 22.5586 64.3558 23.2871 65.169 23.8292C65.9991 24.3543 66.9223 24.6169 67.9387 24.6169C68.9721 24.6169 69.8191 24.4814 70.4798 24.2103C71.1404 23.9223 71.691 23.5497 72.1315 23.0923C72.5719 22.6349 72.9615 22.1521 73.3003 21.6439L72.2331 20.9578C71.979 21.3813 71.6656 21.7794 71.2929 22.1521C70.9372 22.5078 70.4967 22.8043 69.9716 23.0414C69.4634 23.2617 68.8366 23.3718 68.0912 23.3718C67.2611 23.3718 66.5242 23.1685 65.8805 22.7619C65.2537 22.3554 64.7624 21.7879 64.4067 21.0594C64.0509 20.331 63.873 19.4755 63.873 18.493L63.8985 18.0356C63.8985 17.1039 64.0933 16.3077 64.4829 15.647C64.8725 14.9863 65.3892 14.4781 66.0329 14.1224C66.6936 13.7666 67.3966 13.5887 68.142 13.5887C68.9043 13.5887 69.5735 13.7666 70.1494 14.1224C70.7424 14.4781 71.2082 14.9694 71.547 15.5962C71.8858 16.206 72.0552 16.909 72.0552 17.7052H63.3648V18.8487ZM77.5604 29.9531V12.674H76.239V29.9531H77.5604ZM87.5467 18.5184C87.5467 17.2648 87.2926 16.1806 86.7844 15.2658C86.2762 14.3511 85.5986 13.648 84.7515 13.1568C83.9045 12.6655 82.9559 12.4199 81.9056 12.4199C81.1602 12.4199 80.4826 12.5723 79.8727 12.8772C79.2629 13.1822 78.7377 13.6142 78.2973 14.1732C77.8738 14.7153 77.5434 15.359 77.3063 16.1044C77.0691 16.8498 76.9505 17.6544 76.9505 18.5184C76.9505 19.3823 77.0691 20.187 77.3063 20.9324C77.5434 21.6778 77.8738 22.33 78.2973 22.889C78.7377 23.4311 79.2629 23.8546 79.8727 24.1595C80.4826 24.4644 81.1602 24.6169 81.9056 24.6169C82.9559 24.6169 83.9045 24.3713 84.7515 23.88C85.5986 23.3887 86.2762 22.6857 86.7844 21.7709C87.2926 20.8561 87.5467 19.772 87.5467 18.5184ZM86.2254 18.5184C86.2254 19.5348 86.0221 20.4072 85.6155 21.1357C85.2089 21.8472 84.6668 22.3977 83.9892 22.7873C83.3116 23.177 82.5578 23.3718 81.7277 23.3718C81.1856 23.3718 80.6605 23.2532 80.1522 23.016C79.661 22.7789 79.2205 22.4401 78.8309 21.9996C78.4413 21.5592 78.1279 21.0425 77.8907 20.4496C77.6705 19.8567 77.5604 19.2129 77.5604 18.5184C77.5604 17.8238 77.6705 17.1801 77.8907 16.5872C78.1279 15.9943 78.4413 15.4776 78.8309 15.0371C79.2205 14.5967 79.661 14.2579 80.1522 14.0207C80.6605 13.7836 81.1856 13.665 81.7277 13.665C82.5578 13.665 83.3116 13.8598 83.9892 14.2494C84.6668 14.6221 85.2089 15.1727 85.6155 15.9011C86.0221 16.6295 86.2254 17.502 86.2254 18.5184ZM90.6293 12.674V24.3628H91.9507V13.9191H96.55V12.674H90.6293ZM97.0508 18.5184C97.0508 19.6873 97.3134 20.7376 97.8385 21.6693C98.3637 22.5841 99.0752 23.304 99.973 23.8292C100.888 24.3543 101.913 24.6169 103.048 24.6169C104.183 24.6169 105.199 24.3543 106.097 23.8292C107.012 23.304 107.732 22.5841 108.257 21.6693C108.782 20.7376 109.045 19.6873 109.045 18.5184C109.045 17.3326 108.782 16.2823 108.257 15.3675C107.732 14.4527 107.012 13.7327 106.097 13.2076C105.199 12.6824 104.183 12.4199 103.048 12.4199C101.913 12.4199 100.888 12.6824 99.973 13.2076C99.0752 13.7327 98.3637 14.4527 97.8385 15.3675C97.3134 16.2823 97.0508 17.3326 97.0508 18.5184ZM98.3976 18.5184C98.3976 17.5697 98.6009 16.7312 99.0074 16.0027C99.414 15.2743 99.9646 14.7068 100.659 14.3002C101.371 13.8767 102.167 13.665 103.048 13.665C103.929 13.665 104.716 13.8767 105.411 14.3002C106.122 14.7068 106.681 15.2743 107.088 16.0027C107.495 16.7312 107.698 17.5697 107.698 18.5184C107.698 19.4501 107.495 20.2886 107.088 21.034C106.681 21.7625 106.122 22.3384 105.411 22.7619C104.716 23.1685 103.929 23.3718 103.048 23.3718C102.167 23.3718 101.371 23.1685 100.659 22.7619C99.9646 22.3384 99.414 21.7625 99.0074 21.034C98.6009 20.2886 98.3976 19.4501 98.3976 18.5184ZM113.159 17.9085V19.1282H119.765L120.832 17.9085H113.159ZM119.714 18.5184C119.714 19.4501 119.511 20.2886 119.105 21.034C118.698 21.7625 118.139 22.3384 117.427 22.7619C116.733 23.1685 115.945 23.3718 115.064 23.3718C114.437 23.3718 113.853 23.2786 113.311 23.0923C112.769 22.9059 112.303 22.6688 111.913 22.3808C111.524 22.0758 111.236 21.7709 111.049 21.466V23.1177C111.405 23.5412 111.947 23.8969 112.676 24.1849C113.421 24.4729 114.217 24.6169 115.064 24.6169C116.199 24.6169 117.216 24.3543 118.114 23.8292C119.028 23.304 119.748 22.5841 120.273 21.6693C120.799 20.7376 121.061 19.6873 121.061 18.5184C121.061 17.3326 120.799 16.2823 120.273 15.3675C119.748 14.4527 119.028 13.7327 118.114 13.2076C117.216 12.6824 116.199 12.4199 115.064 12.4199C114.217 12.4199 113.421 12.5723 112.676 12.8772C111.947 13.1652 111.405 13.5125 111.049 13.9191V15.5708C111.236 15.2489 111.524 14.944 111.913 14.656C112.303 14.368 112.769 14.1308 113.311 13.9445C113.853 13.7581 114.437 13.665 115.064 13.665C115.945 13.665 116.733 13.8767 117.427 14.3002C118.139 14.7068 118.698 15.2743 119.105 16.0027C119.511 16.7312 119.714 17.5697 119.714 18.5184ZM128.466 10.1329V26.9038H129.788V10.1329H128.466ZM122.571 18.5184C122.571 19.6873 122.842 20.7376 123.384 21.6693C123.926 22.5841 124.689 23.304 125.671 23.8292C126.671 24.3543 127.823 24.6169 129.127 24.6169C130.448 24.6169 131.6 24.3543 132.583 23.8292C133.565 23.304 134.328 22.5841 134.87 21.6693C135.412 20.7376 135.683 19.6873 135.683 18.5184C135.683 17.3326 135.412 16.2823 134.87 15.3675C134.328 14.4527 133.565 13.7327 132.583 13.2076C131.6 12.6824 130.448 12.4199 129.127 12.4199C127.823 12.4199 126.671 12.6824 125.671 13.2076C124.689 13.7327 123.926 14.4527 123.384 15.3675C122.842 16.2823 122.571 17.3326 122.571 18.5184ZM123.918 18.5184C123.918 17.6036 124.121 16.782 124.528 16.0536C124.951 15.3082 125.553 14.7237 126.332 14.3002C127.111 13.8767 128.043 13.665 129.127 13.665C130.211 13.665 131.143 13.8767 131.922 14.3002C132.701 14.7237 133.294 15.3082 133.701 16.0536C134.124 16.782 134.336 17.6036 134.336 18.5184C134.336 19.4332 134.124 20.2548 133.701 20.9832C133.294 21.7116 132.701 22.2961 131.922 22.7365C131.143 23.16 130.211 23.3718 129.127 23.3718C128.043 23.3718 127.111 23.16 126.332 22.7365C125.553 22.2961 124.951 21.7116 124.528 20.9832C124.121 20.2548 123.918 19.4332 123.918 18.5184ZM143.101 10.1329V26.9038H144.423V10.1329H143.101ZM137.206 18.5184C137.206 19.6873 137.477 20.7376 138.019 21.6693C138.561 22.5841 139.324 23.304 140.306 23.8292C141.306 24.3543 142.457 24.6169 143.762 24.6169C145.083 24.6169 146.235 24.3543 147.218 23.8292C148.2 23.304 148.963 22.5841 149.505 21.6693C150.047 20.7376 150.318 19.6873 150.318 18.5184C150.318 17.3326 150.047 16.2823 149.505 15.3675C148.963 14.4527 148.2 13.7327 147.218 13.2076C146.235 12.6824 145.083 12.4199 143.762 12.4199C142.457 12.4199 141.306 12.6824 140.306 13.2076C139.324 13.7327 138.561 14.4527 138.019 15.3675C137.477 16.2823 137.206 17.3326 137.206 18.5184ZM138.553 18.5184C138.553 17.6036 138.756 16.782 139.163 16.0536C139.586 15.3082 140.187 14.7237 140.967 14.3002C141.746 13.8767 142.678 13.665 143.762 13.665C144.846 13.665 145.778 13.8767 146.557 14.3002C147.336 14.7237 147.929 15.3082 148.336 16.0536C148.759 16.782 148.971 17.6036 148.971 18.5184C148.971 19.4332 148.759 20.2548 148.336 20.9832C147.929 21.7116 147.336 22.2961 146.557 22.7365C145.778 23.16 144.846 23.3718 143.762 23.3718C142.678 23.3718 141.746 23.16 140.967 22.7365C140.187 22.2961 139.586 21.7116 139.163 20.9832C138.756 20.2548 138.553 19.4332 138.553 18.5184ZM152.781 18.8487H162.869C162.886 18.7471 162.894 18.6454 162.894 18.5438C162.911 18.4252 162.92 18.3151 162.92 18.2135C162.92 17.0446 162.683 16.0281 162.208 15.1642C161.734 14.3002 161.09 13.6311 160.277 13.1568C159.481 12.6655 158.575 12.4199 157.558 12.4199C156.626 12.4199 155.779 12.6147 155.017 13.0043C154.255 13.377 153.62 13.9106 153.111 14.6052C152.62 15.2828 152.281 16.0705 152.095 16.9683C152.027 17.2055 151.985 17.4511 151.968 17.7052C151.951 17.9593 151.942 18.2219 151.942 18.493C151.942 19.6619 152.18 20.7122 152.654 21.6439C153.128 22.5586 153.772 23.2871 154.585 23.8292C155.415 24.3543 156.338 24.6169 157.355 24.6169C158.388 24.6169 159.235 24.4814 159.896 24.2103C160.557 23.9223 161.107 23.5497 161.548 23.0923C161.988 22.6349 162.378 22.1521 162.717 21.6439L161.649 20.9578C161.395 21.3813 161.082 21.7794 160.709 22.1521C160.353 22.5078 159.913 22.8043 159.388 23.0414C158.88 23.2617 158.253 23.3718 157.507 23.3718C156.677 23.3718 155.94 23.1685 155.297 22.7619C154.67 22.3554 154.179 21.7879 153.823 21.0594C153.467 20.331 153.289 19.4755 153.289 18.493L153.315 18.0356C153.315 17.1039 153.509 16.3077 153.899 15.647C154.289 14.9863 154.805 14.4781 155.449 14.1224C156.11 13.7666 156.813 13.5887 157.558 13.5887C158.32 13.5887 158.99 13.7666 159.566 14.1224C160.159 14.4781 160.624 14.9694 160.963 15.5962C161.302 16.206 161.471 16.909 161.471 17.7052H152.781V18.8487ZM165.655 12.674V24.3628H166.977V12.674H165.655ZM171.982 12.674L166.494 17.502L172.491 24.3628H174.168L168.171 17.502L173.685 12.674H171.982ZM174.839 12.674V13.9191H181.7V12.674H174.839ZM177.609 13.0297V24.3628H178.93V13.0297H177.609ZM192.557 13.8174L192.684 11.7846L183.74 23.2193L183.613 25.2522L192.557 13.8174ZM184.934 12.674H183.613V25.2522L184.934 23.3718V12.674ZM192.684 11.7846L191.363 13.665V24.3628H192.684V11.7846ZM197.121 18.3659V19.052H200.501C200.89 19.052 201.255 19.0859 201.593 19.1536C201.949 19.2214 202.263 19.3315 202.534 19.484C202.822 19.6195 203.042 19.8143 203.194 20.0684C203.364 20.3225 203.448 20.6444 203.448 21.034C203.448 21.61 203.228 22.1182 202.788 22.5586C202.364 22.9822 201.67 23.1939 200.704 23.1939H197.121V24.3628H201.009C202.347 24.3628 203.304 24.0579 203.88 23.448C204.473 22.8212 204.77 22.0674 204.77 21.1865C204.77 20.4242 204.583 19.8397 204.211 19.4332C203.838 19.0266 203.33 18.7471 202.686 18.5946C202.042 18.4421 201.314 18.3659 200.501 18.3659H197.121ZM197.121 18.6708H200.247C200.975 18.6708 201.636 18.5777 202.229 18.3913C202.838 18.188 203.33 17.8831 203.702 17.4765C204.075 17.053 204.261 16.5109 204.261 15.8503C204.261 15.088 204.075 14.4781 203.702 14.0207C203.33 13.5464 202.838 13.2076 202.229 13.0043C201.636 12.7841 200.975 12.674 200.247 12.674H197.121V13.8428H200.247C200.772 13.8428 201.238 13.9275 201.644 14.097C202.051 14.2494 202.364 14.4781 202.584 14.783C202.822 15.088 202.94 15.4691 202.94 15.9265C202.94 16.2823 202.855 16.5872 202.686 16.8413C202.534 17.0954 202.322 17.2987 202.051 17.4511C201.78 17.6036 201.483 17.7222 201.161 17.8069C200.856 17.8746 200.552 17.9085 200.247 17.9085H197.121V18.6708ZM196.359 12.674V24.3628H197.68V12.674H196.359ZM207.96 18.7979H216.498V17.5528H207.96V18.7979ZM215.685 12.674V24.3628H217.006V12.674H215.685ZM207.172 12.674V24.3628H208.494V12.674H207.172ZM219.652 18.5184C219.652 19.6873 219.914 20.7376 220.439 21.6693C220.964 22.5841 221.676 23.304 222.574 23.8292C223.489 24.3543 224.513 24.6169 225.648 24.6169C226.783 24.6169 227.8 24.3543 228.698 23.8292C229.612 23.304 230.332 22.5841 230.858 21.6693C231.383 20.7376 231.645 19.6873 231.645 18.5184C231.645 17.3326 231.383 16.2823 230.858 15.3675C230.332 14.4527 229.612 13.7327 228.698 13.2076C227.8 12.6824 226.783 12.4199 225.648 12.4199C224.513 12.4199 223.489 12.6824 222.574 13.2076C221.676 13.7327 220.964 14.4527 220.439 15.3675C219.914 16.2823 219.652 17.3326 219.652 18.5184ZM220.998 18.5184C220.998 17.5697 221.202 16.7312 221.608 16.0027C222.015 15.2743 222.565 14.7068 223.26 14.3002C223.971 13.8767 224.767 13.665 225.648 13.665C226.529 13.665 227.317 13.8767 228.012 14.3002C228.723 14.7068 229.282 15.2743 229.689 16.0027C230.095 16.7312 230.299 17.5697 230.299 18.5184C230.299 19.4501 230.095 20.2886 229.689 21.034C229.282 21.7625 228.723 22.3384 228.012 22.7619C227.317 23.1685 226.529 23.3718 225.648 23.3718C224.767 23.3718 223.971 23.1685 223.26 22.7619C222.565 22.3384 222.015 21.7625 221.608 21.034C221.202 20.2886 220.998 19.4501 220.998 18.5184ZM234.489 18.5184C234.489 17.5697 234.692 16.7312 235.099 16.0027C235.505 15.2743 236.056 14.7068 236.75 14.3002C237.462 13.8767 238.258 13.665 239.139 13.665C239.766 13.665 240.35 13.7581 240.892 13.9445C241.434 14.1308 241.9 14.368 242.29 14.656C242.696 14.944 242.984 15.2489 243.154 15.5708V13.9191C242.798 13.5125 242.247 13.1652 241.502 12.8772C240.774 12.5723 239.986 12.4199 239.139 12.4199C238.004 12.4199 236.979 12.6824 236.064 13.2076C235.166 13.7327 234.455 14.4527 233.93 15.3675C233.404 16.2823 233.142 17.3326 233.142 18.5184C233.142 19.6873 233.404 20.7376 233.93 21.6693C234.455 22.5841 235.166 23.304 236.064 23.8292C236.979 24.3543 238.004 24.6169 239.139 24.6169C239.986 24.6169 240.774 24.4729 241.502 24.1849C242.247 23.8969 242.798 23.5412 243.154 23.1177V21.466C242.984 21.7709 242.696 22.0758 242.29 22.3808C241.9 22.6688 241.434 22.9059 240.892 23.0923C240.35 23.2786 239.766 23.3718 239.139 23.3718C238.258 23.3718 237.462 23.1685 236.75 22.7619C236.056 22.3384 235.505 21.7625 235.099 21.034C234.692 20.2886 234.489 19.4501 234.489 18.5184ZM244.285 12.674V13.9191H251.146V12.674H244.285ZM247.055 13.0297V24.3628H248.376V13.0297H247.055ZM252.932 12.674V24.3628H254.253V12.674H252.932ZM253.669 18.2643H257.048C257.641 18.2643 258.158 18.3574 258.598 18.5438C259.039 18.7301 259.378 19.0096 259.615 19.3823C259.869 19.7381 259.996 20.187 259.996 20.7291C259.996 21.2881 259.869 21.754 259.615 22.1267C259.378 22.4824 259.039 22.7535 258.598 22.9398C258.158 23.1092 257.641 23.1939 257.048 23.1939H253.669V24.3628H257.048C257.862 24.3628 258.59 24.2357 259.234 23.9816C259.877 23.7275 260.386 23.3294 260.758 22.7873C261.131 22.2453 261.317 21.5592 261.317 20.7291C261.317 19.8821 261.131 19.196 260.758 18.6708C260.386 18.1288 259.877 17.7307 259.234 17.4765C258.59 17.2224 257.862 17.0954 257.048 17.0954H253.669V18.2643Z" fill="#060606"/>
<path d="M20.0841 12.0866H12.1567L15.3021 0L0 18.6302H7.92737L4.78192 30.7168L20.0841 12.0866Z" fill="#FFCC00"/>
</svg>
