<svg width="214" height="31" viewBox="0 0 214 31" fill="none" xmlns="http://www.w3.org/2000/svg">
<path d="M33.8802 15.8828H42.6402V14.8428H33.8802V15.8828ZM42.6402 15.3628C42.6402 16.2561 42.4935 17.0761 42.2002 17.8228C41.9069 18.5561 41.5002 19.1961 40.9802 19.7428C40.4735 20.2761 39.8735 20.6895 39.1802 20.9828C38.5002 21.2761 37.7669 21.4228 36.9802 21.4228C36.3268 21.4228 35.7202 21.3495 35.1602 21.2028C34.6135 21.0428 34.1202 20.8228 33.6802 20.5428C33.2402 20.2495 32.8402 19.9028 32.4802 19.5028V20.9828C33.0668 21.5028 33.7068 21.8961 34.4002 22.1628C35.1068 22.4161 35.9669 22.5428 36.9802 22.5428C37.9535 22.5428 38.8535 22.3695 39.6802 22.0228C40.5069 21.6628 41.2269 21.1628 41.8402 20.5228C42.4669 19.8828 42.9535 19.1228 43.3002 18.2428C43.6469 17.3628 43.8202 16.4028 43.8202 15.3628C43.8202 14.3228 43.6469 13.3628 43.3002 12.4828C42.9535 11.6028 42.4669 10.8428 41.8402 10.2028C41.2269 9.56279 40.5069 9.06946 39.6802 8.72279C38.8535 8.36279 37.9535 8.18279 36.9802 8.18279C35.9669 8.18279 35.1068 8.31613 34.4002 8.58279C33.7068 8.83613 33.0668 9.22279 32.4802 9.74279V11.2028C32.8268 10.8028 33.2268 10.4628 33.6802 10.1828C34.1335 9.88946 34.6335 9.66946 35.1802 9.52279C35.7402 9.37613 36.3402 9.30279 36.9802 9.30279C37.7669 9.30279 38.5002 9.44946 39.1802 9.74279C39.8735 10.0361 40.4735 10.4561 40.9802 11.0028C41.5002 11.5361 41.9069 12.1761 42.2002 12.9228C42.4935 13.6561 42.6402 14.4695 42.6402 15.3628ZM46.6116 17.9828H53.3316V17.0028H46.6116V17.9828ZM52.6916 13.1628V22.3628H53.7316V13.1628H52.6916ZM45.9916 13.1628V22.3628H47.0316V13.1628H45.9916ZM56.4738 18.0228H64.4138C64.4271 17.9428 64.4338 17.8628 64.4338 17.7828C64.4471 17.6895 64.4538 17.6028 64.4538 17.5228C64.4538 16.6028 64.2671 15.8028 63.8938 15.1228C63.5204 14.4428 63.0138 13.9161 62.3738 13.5428C61.7471 13.1561 61.0338 12.9628 60.2338 12.9628C59.5004 12.9628 58.8338 13.1161 58.2338 13.4228C57.6338 13.7161 57.1338 14.1361 56.7338 14.6828C56.3471 15.2161 56.0804 15.8361 55.9338 16.5428C55.8804 16.7295 55.8471 16.9228 55.8338 17.1228C55.8204 17.3228 55.8138 17.5295 55.8138 17.7428C55.8138 18.6628 56.0004 19.4895 56.3738 20.2228C56.7471 20.9428 57.2538 21.5161 57.8938 21.9428C58.5471 22.3561 59.2738 22.5628 60.0738 22.5628C60.8871 22.5628 61.5538 22.4561 62.0738 22.2428C62.5938 22.0161 63.0271 21.7228 63.3738 21.3628C63.7204 21.0028 64.0271 20.6228 64.2938 20.2228L63.4538 19.6828C63.2538 20.0161 63.0071 20.3295 62.7138 20.6228C62.4338 20.9028 62.0871 21.1361 61.6738 21.3228C61.2738 21.4961 60.7804 21.5828 60.1938 21.5828C59.5404 21.5828 58.9604 21.4228 58.4538 21.1028C57.9604 20.7828 57.5738 20.3361 57.2938 19.7628C57.0138 19.1895 56.8738 18.5161 56.8738 17.7428L56.8938 17.3828C56.8938 16.6495 57.0471 16.0228 57.3538 15.5028C57.6604 14.9828 58.0671 14.5828 58.5738 14.3028C59.0938 14.0228 59.6471 13.8828 60.2338 13.8828C60.8338 13.8828 61.3604 14.0228 61.8138 14.3028C62.2804 14.5828 62.6471 14.9695 62.9138 15.4628C63.1804 15.9428 63.3138 16.4961 63.3138 17.1228H56.4738V18.0228ZM67.6467 26.7628V13.1628H66.6067V26.7628H67.6467ZM75.5067 17.7628C75.5067 16.7761 75.3067 15.9228 74.9067 15.2028C74.5067 14.4828 73.9734 13.9295 73.3067 13.5428C72.6401 13.1561 71.8934 12.9628 71.0667 12.9628C70.4801 12.9628 69.9467 13.0828 69.4667 13.3228C68.9867 13.5628 68.5734 13.9028 68.2267 14.3428C67.8934 14.7695 67.6334 15.2761 67.4467 15.8628C67.2601 16.4495 67.1667 17.0828 67.1667 17.7628C67.1667 18.4428 67.2601 19.0761 67.4467 19.6628C67.6334 20.2495 67.8934 20.7628 68.2267 21.2028C68.5734 21.6295 68.9867 21.9628 69.4667 22.2028C69.9467 22.4428 70.4801 22.5628 71.0667 22.5628C71.8934 22.5628 72.6401 22.3695 73.3067 21.9828C73.9734 21.5961 74.5067 21.0428 74.9067 20.3228C75.3067 19.6028 75.5067 18.7495 75.5067 17.7628ZM74.4667 17.7628C74.4667 18.5628 74.3067 19.2495 73.9867 19.8228C73.6667 20.3828 73.2401 20.8161 72.7067 21.1228C72.1734 21.4295 71.5801 21.5828 70.9267 21.5828C70.5001 21.5828 70.0867 21.4895 69.6867 21.3028C69.3001 21.1161 68.9534 20.8495 68.6467 20.5028C68.3401 20.1561 68.0934 19.7495 67.9067 19.2828C67.7334 18.8161 67.6467 18.3095 67.6467 17.7628C67.6467 17.2161 67.7334 16.7095 67.9067 16.2428C68.0934 15.7761 68.3401 15.3695 68.6467 15.0228C68.9534 14.6761 69.3001 14.4095 69.6867 14.2228C70.0867 14.0361 70.5001 13.9428 70.9267 13.9428C71.5801 13.9428 72.1734 14.0961 72.7067 14.4028C73.2401 14.6961 73.6667 15.1295 73.9867 15.7028C74.3067 16.2761 74.4667 16.9628 74.4667 17.7628ZM77.933 13.1628V22.3628H78.973V14.1428H82.593V13.1628H77.933ZM82.9872 17.7628C82.9872 18.6828 83.1939 19.5095 83.6072 20.2428C84.0205 20.9628 84.5805 21.5295 85.2872 21.9428C86.0072 22.3561 86.8139 22.5628 87.7072 22.5628C88.6005 22.5628 89.4005 22.3561 90.1072 21.9428C90.8272 21.5295 91.3939 20.9628 91.8072 20.2428C92.2205 19.5095 92.4272 18.6828 92.4272 17.7628C92.4272 16.8295 92.2205 16.0028 91.8072 15.2828C91.3939 14.5628 90.8272 13.9961 90.1072 13.5828C89.4005 13.1695 88.6005 12.9628 87.7072 12.9628C86.8139 12.9628 86.0072 13.1695 85.2872 13.5828C84.5805 13.9961 84.0205 14.5628 83.6072 15.2828C83.1939 16.0028 82.9872 16.8295 82.9872 17.7628ZM84.0472 17.7628C84.0472 17.0161 84.2072 16.3561 84.5272 15.7828C84.8472 15.2095 85.2805 14.7628 85.8272 14.4428C86.3872 14.1095 87.0139 13.9428 87.7072 13.9428C88.4005 13.9428 89.0205 14.1095 89.5672 14.4428C90.1272 14.7628 90.5672 15.2095 90.8872 15.7828C91.2072 16.3561 91.3672 17.0161 91.3672 17.7628C91.3672 18.4961 91.2072 19.1561 90.8872 19.7428C90.5672 20.3161 90.1272 20.7695 89.5672 21.1028C89.0205 21.4228 88.4005 21.5828 87.7072 21.5828C87.0139 21.5828 86.3872 21.4228 85.8272 21.1028C85.2805 20.7695 84.8472 20.3161 84.5272 19.7428C84.2072 19.1561 84.0472 18.4961 84.0472 17.7628ZM95.6652 17.2828V18.2428H100.865L101.705 17.2828H95.6652ZM100.825 17.7628C100.825 18.4961 100.665 19.1561 100.345 19.7428C100.025 20.3161 99.5852 20.7695 99.0252 21.1028C98.4785 21.4228 97.8585 21.5828 97.1652 21.5828C96.6718 21.5828 96.2118 21.5095 95.7852 21.3628C95.3585 21.2161 94.9918 21.0295 94.6852 20.8028C94.3785 20.5628 94.1518 20.3228 94.0052 20.0828V21.3828C94.2852 21.7161 94.7118 21.9961 95.2852 22.2228C95.8718 22.4495 96.4985 22.5628 97.1652 22.5628C98.0585 22.5628 98.8585 22.3561 99.5652 21.9428C100.285 21.5295 100.852 20.9628 101.265 20.2428C101.679 19.5095 101.885 18.6828 101.885 17.7628C101.885 16.8295 101.679 16.0028 101.265 15.2828C100.852 14.5628 100.285 13.9961 99.5652 13.5828C98.8585 13.1695 98.0585 12.9628 97.1652 12.9628C96.4985 12.9628 95.8718 13.0828 95.2852 13.3228C94.7118 13.5495 94.2852 13.8228 94.0052 14.1428V15.4428C94.1518 15.1895 94.3785 14.9495 94.6852 14.7228C94.9918 14.4961 95.3585 14.3095 95.7852 14.1628C96.2118 14.0161 96.6718 13.9428 97.1652 13.9428C97.8585 13.9428 98.4785 14.1095 99.0252 14.4428C99.5852 14.7628 100.025 15.2095 100.345 15.7828C100.665 16.3561 100.825 17.0161 100.825 17.7628ZM107.714 11.1628V24.3628H108.754V11.1628H107.714ZM103.074 17.7628C103.074 18.6828 103.287 19.5095 103.714 20.2428C104.14 20.9628 104.74 21.5295 105.514 21.9428C106.3 22.3561 107.207 22.5628 108.234 22.5628C109.274 22.5628 110.18 22.3561 110.954 21.9428C111.727 21.5295 112.327 20.9628 112.754 20.2428C113.18 19.5095 113.394 18.6828 113.394 17.7628C113.394 16.8295 113.18 16.0028 112.754 15.2828C112.327 14.5628 111.727 13.9961 110.954 13.5828C110.18 13.1695 109.274 12.9628 108.234 12.9628C107.207 12.9628 106.3 13.1695 105.514 13.5828C104.74 13.9961 104.14 14.5628 103.714 15.2828C103.287 16.0028 103.074 16.8295 103.074 17.7628ZM104.134 17.7628C104.134 17.0428 104.294 16.3961 104.614 15.8228C104.947 15.2361 105.42 14.7761 106.034 14.4428C106.647 14.1095 107.38 13.9428 108.234 13.9428C109.087 13.9428 109.82 14.1095 110.434 14.4428C111.047 14.7761 111.514 15.2361 111.834 15.8228C112.167 16.3961 112.334 17.0428 112.334 17.7628C112.334 18.4828 112.167 19.1295 111.834 19.7028C111.514 20.2761 111.047 20.7361 110.434 21.0828C109.82 21.4161 109.087 21.5828 108.234 21.5828C107.38 21.5828 106.647 21.4161 106.034 21.0828C105.42 20.7361 104.947 20.2761 104.614 19.7028C104.294 19.1295 104.134 18.4828 104.134 17.7628ZM119.232 11.1628V24.3628H120.272V11.1628H119.232ZM114.592 17.7628C114.592 18.6828 114.806 19.5095 115.232 20.2428C115.659 20.9628 116.259 21.5295 117.032 21.9428C117.819 22.3561 118.726 22.5628 119.752 22.5628C120.792 22.5628 121.699 22.3561 122.472 21.9428C123.246 21.5295 123.846 20.9628 124.272 20.2428C124.699 19.5095 124.912 18.6828 124.912 17.7628C124.912 16.8295 124.699 16.0028 124.272 15.2828C123.846 14.5628 123.246 13.9961 122.472 13.5828C121.699 13.1695 120.792 12.9628 119.752 12.9628C118.726 12.9628 117.819 13.1695 117.032 13.5828C116.259 13.9961 115.659 14.5628 115.232 15.2828C114.806 16.0028 114.592 16.8295 114.592 17.7628ZM115.652 17.7628C115.652 17.0428 115.812 16.3961 116.132 15.8228C116.466 15.2361 116.939 14.7761 117.552 14.4428C118.166 14.1095 118.899 13.9428 119.752 13.9428C120.606 13.9428 121.339 14.1095 121.952 14.4428C122.566 14.7761 123.032 15.2361 123.352 15.8228C123.686 16.3961 123.852 17.0428 123.852 17.7628C123.852 18.4828 123.686 19.1295 123.352 19.7028C123.032 20.2761 122.566 20.7361 121.952 21.0828C121.339 21.4161 120.606 21.5828 119.752 21.5828C118.899 21.5828 118.166 21.4161 117.552 21.0828C116.939 20.7361 116.466 20.2761 116.132 19.7028C115.812 19.1295 115.652 18.4828 115.652 17.7628ZM126.851 18.0228H134.791C134.804 17.9428 134.811 17.8628 134.811 17.7828C134.824 17.6895 134.831 17.6028 134.831 17.5228C134.831 16.6028 134.644 15.8028 134.271 15.1228C133.898 14.4428 133.391 13.9161 132.751 13.5428C132.124 13.1561 131.411 12.9628 130.611 12.9628C129.878 12.9628 129.211 13.1161 128.611 13.4228C128.011 13.7161 127.511 14.1361 127.111 14.6828C126.724 15.2161 126.458 15.8361 126.311 16.5428C126.258 16.7295 126.224 16.9228 126.211 17.1228C126.198 17.3228 126.191 17.5295 126.191 17.7428C126.191 18.6628 126.378 19.4895 126.751 20.2228C127.124 20.9428 127.631 21.5161 128.271 21.9428C128.924 22.3561 129.651 22.5628 130.451 22.5628C131.264 22.5628 131.931 22.4561 132.451 22.2428C132.971 22.0161 133.404 21.7228 133.751 21.3628C134.098 21.0028 134.404 20.6228 134.671 20.2228L133.831 19.6828C133.631 20.0161 133.384 20.3295 133.091 20.6228C132.811 20.9028 132.464 21.1361 132.051 21.3228C131.651 21.4961 131.158 21.5828 130.571 21.5828C129.918 21.5828 129.338 21.4228 128.831 21.1028C128.338 20.7828 127.951 20.3361 127.671 19.7628C127.391 19.1895 127.251 18.5161 127.251 17.7428L127.271 17.3828C127.271 16.6495 127.424 16.0228 127.731 15.5028C128.038 14.9828 128.444 14.5828 128.951 14.3028C129.471 14.0228 130.024 13.8828 130.611 13.8828C131.211 13.8828 131.738 14.0228 132.191 14.3028C132.658 14.5828 133.024 14.9695 133.291 15.4628C133.558 15.9428 133.691 16.4961 133.691 17.1228H126.851V18.0228ZM136.984 13.1628V22.3628H138.024V13.1628H136.984ZM141.964 13.1628L137.644 16.9628L142.364 22.3628H143.684L138.964 16.9628L143.304 13.1628H141.964ZM144.213 13.1628V14.1428H149.613V13.1628H144.213ZM146.393 13.4428V22.3628H147.433V13.4428H146.393ZM158.158 14.0628L158.258 12.4628L151.218 21.4628L151.118 23.0628L158.158 14.0628ZM152.158 13.1628H151.118V23.0628L152.158 21.5828V13.1628ZM158.258 12.4628L157.218 13.9428V22.3628H158.258V12.4628ZM161.75 17.6428V18.1828H164.41C164.717 18.1828 165.004 18.2095 165.27 18.2628C165.55 18.3161 165.797 18.4028 166.01 18.5228C166.237 18.6295 166.41 18.7828 166.53 18.9828C166.664 19.1828 166.73 19.4361 166.73 19.7428C166.73 20.1961 166.557 20.5961 166.21 20.9428C165.877 21.2761 165.33 21.4428 164.57 21.4428H161.75V22.3628H164.81C165.864 22.3628 166.617 22.1228 167.07 21.6428C167.537 21.1495 167.77 20.5561 167.77 19.8628C167.77 19.2628 167.624 18.8028 167.33 18.4828C167.037 18.1628 166.637 17.9428 166.13 17.8228C165.624 17.7028 165.05 17.6428 164.41 17.6428H161.75ZM161.75 17.8828H164.21C164.784 17.8828 165.304 17.8095 165.77 17.6628C166.25 17.5028 166.637 17.2628 166.93 16.9428C167.224 16.6095 167.37 16.1828 167.37 15.6628C167.37 15.0628 167.224 14.5828 166.93 14.2228C166.637 13.8495 166.25 13.5828 165.77 13.4228C165.304 13.2495 164.784 13.1628 164.21 13.1628H161.75V14.0828H164.21C164.624 14.0828 164.99 14.1495 165.31 14.2828C165.63 14.4028 165.877 14.5828 166.05 14.8228C166.237 15.0628 166.33 15.3628 166.33 15.7228C166.33 16.0028 166.264 16.2428 166.13 16.4428C166.01 16.6428 165.844 16.8028 165.63 16.9228C165.417 17.0428 165.184 17.1361 164.93 17.2028C164.69 17.2561 164.45 17.2828 164.21 17.2828H161.75V17.8828ZM161.15 13.1628V22.3628H162.19V13.1628H161.15ZM170.281 17.9828H177.001V17.0028H170.281V17.9828ZM176.361 13.1628V22.3628H177.401V13.1628H176.361ZM169.661 13.1628V22.3628H170.701V13.1628H169.661ZM179.483 17.7628C179.483 18.6828 179.69 19.5095 180.103 20.2428C180.517 20.9628 181.077 21.5295 181.783 21.9428C182.503 22.3561 183.31 22.5628 184.203 22.5628C185.097 22.5628 185.897 22.3561 186.603 21.9428C187.323 21.5295 187.89 20.9628 188.303 20.2428C188.717 19.5095 188.923 18.6828 188.923 17.7628C188.923 16.8295 188.717 16.0028 188.303 15.2828C187.89 14.5628 187.323 13.9961 186.603 13.5828C185.897 13.1695 185.097 12.9628 184.203 12.9628C183.31 12.9628 182.503 13.1695 181.783 13.5828C181.077 13.9961 180.517 14.5628 180.103 15.2828C179.69 16.0028 179.483 16.8295 179.483 17.7628ZM180.543 17.7628C180.543 17.0161 180.703 16.3561 181.023 15.7828C181.343 15.2095 181.777 14.7628 182.323 14.4428C182.883 14.1095 183.51 13.9428 184.203 13.9428C184.897 13.9428 185.517 14.1095 186.063 14.4428C186.623 14.7628 187.063 15.2095 187.383 15.7828C187.703 16.3561 187.863 17.0161 187.863 17.7628C187.863 18.4961 187.703 19.1561 187.383 19.7428C187.063 20.3161 186.623 20.7695 186.063 21.1028C185.517 21.4228 184.897 21.5828 184.203 21.5828C183.51 21.5828 182.883 21.4228 182.323 21.1028C181.777 20.7695 181.343 20.3161 181.023 19.7428C180.703 19.1561 180.543 18.4961 180.543 17.7628ZM191.161 17.7628C191.161 17.0161 191.321 16.3561 191.641 15.7828C191.961 15.2095 192.395 14.7628 192.941 14.4428C193.501 14.1095 194.128 13.9428 194.821 13.9428C195.315 13.9428 195.775 14.0161 196.201 14.1628C196.628 14.3095 196.995 14.4961 197.301 14.7228C197.621 14.9495 197.848 15.1895 197.981 15.4428V14.1428C197.701 13.8228 197.268 13.5495 196.681 13.3228C196.108 13.0828 195.488 12.9628 194.821 12.9628C193.928 12.9628 193.121 13.1695 192.401 13.5828C191.695 13.9961 191.135 14.5628 190.721 15.2828C190.308 16.0028 190.101 16.8295 190.101 17.7628C190.101 18.6828 190.308 19.5095 190.721 20.2428C191.135 20.9628 191.695 21.5295 192.401 21.9428C193.121 22.3561 193.928 22.5628 194.821 22.5628C195.488 22.5628 196.108 22.4495 196.681 22.2228C197.268 21.9961 197.701 21.7161 197.981 21.3828V20.0828C197.848 20.3228 197.621 20.5628 197.301 20.8028C196.995 21.0295 196.628 21.2161 196.201 21.3628C195.775 21.5095 195.315 21.5828 194.821 21.5828C194.128 21.5828 193.501 21.4228 192.941 21.1028C192.395 20.7695 191.961 20.3161 191.641 19.7428C191.321 19.1561 191.161 18.4961 191.161 17.7628ZM198.872 13.1628V14.1428H204.272V13.1628H198.872ZM201.052 13.4428V22.3628H202.092V13.4428H201.052ZM205.678 13.1628V22.3628H206.718V13.1628H205.678ZM206.258 17.5628H208.918C209.384 17.5628 209.791 17.6361 210.138 17.7828C210.484 17.9295 210.751 18.1495 210.938 18.4428C211.138 18.7228 211.238 19.0761 211.238 19.5028C211.238 19.9428 211.138 20.3095 210.938 20.6028C210.751 20.8828 210.484 21.0961 210.138 21.2428C209.791 21.3761 209.384 21.4428 208.918 21.4428H206.258V22.3628H208.918C209.558 22.3628 210.131 22.2628 210.638 22.0628C211.144 21.8628 211.544 21.5495 211.838 21.1228C212.131 20.6961 212.278 20.1561 212.278 19.5028C212.278 18.8361 212.131 18.2961 211.838 17.8828C211.544 17.4561 211.144 17.1428 210.638 16.9428C210.131 16.7428 209.558 16.6428 208.918 16.6428H206.258V17.5628Z" fill="white"/>
<path d="M20.0841 12.0866H12.1567L15.3021 0L0 18.6302H7.92737L4.78192 30.7168L20.0841 12.0866Z" fill="#FFCC00"/>
</svg>
